<?xml version="1.0" encoding="UTF-8"?><svg id="b" xmlns="http://www.w3.org/2000/svg" viewBox="0 0 353.17 287.94"><g id="c"><g><g><rect x=".5" y=".5" width="352.17" height="286.94" fill="#fff"/><path d="m353.17,287.94H0V0h353.17v287.94Zm-352.17-1h351.17V1H1v285.94Z" fill="#ccc"/></g><g><path d="m115.96,286.75h21.69c9.95-11.37,26.56-14.09,39.61-6.49.71-1.64,1.61-3.19,2.67-4.63,7.74-10.49,22.53-12.72,33.02-4.98,2.79-3.42,6.78-5.65,11.16-6.23-.55-1.12-.83-2.35-.83-3.59.05-3.25,1.96-6.18,4.92-7.55,4.24-1.96,9.27-.1,11.22,4.14v-48.92h14.87v39.86c2.72.48,4.71,2.83,4.72,5.59,0,1.06-.3,2.09-.86,2.98,4.65,1.74,7.75,6.17,7.77,11.14,0,.36-.02.71-.05,1.06,1.03.25,2.04.56,3.03.94,1.97-1.79,4.38-3.05,6.97-3.64,8.37-1.92,16.72,3.31,18.64,11.68.03-.02.07-.05.1-.07,15.23-10.42,36.03-6.52,46.45,8.71h11.14s0-69.58,0-69.58c-8.69-12.76-20.1-23.43-33.42-31.25-21.36-12.69-46.4-20.71-71.87-20.27-23.85.41-49.09,11.36-62.05,34.06-10.52,18.43-13.73,35.58-30.77,49.34-11.77,9.51-30.67,12.66-36.54,25.97-1.53,3.71-2.08,7.75-1.59,11.73Zm171.13-78.79c.49-2.23,2.45-3.82,4.73-3.84.84,0,1.66.22,2.38.64.6-1.09,1.46-2.01,2.51-2.69,3.54-2.31,8.27-1.31,10.58,2.23.66-2.39,2.73-4.12,5.21-4.34,3.27-.29,6.15,2.13,6.44,5.4.25-.04.5-.06.76-.07,1.82,0,3.49,1.04,4.31,2.67h-36.91Zm-86.75-9.51c-.02-1.09.44-2.14,1.25-2.87.83-.79,2.03-1.05,3.11-.68.62-1.93,2.44-3.22,4.47-3.17,4.73,0,5.11,4.66,5.11,4.66,3.33-1.01,3.98,1.94,3.98,2.06h-17.92Z" fill="#f0f7fa"/><circle cx="268.22" cy="112.02" r="2.55" fill="#f0f7fa"/><path d="m210.45,163.59h0c-.94,0-1.71.76-1.71,1.71,0,.94.76,1.71,1.71,1.71.94,0,1.71-.76,1.71-1.71,0-.94-.76-1.71-1.71-1.71Z" fill="#91c3da"/><path d="m280.37,156.33c.06.03.12.09.15.15.1.18.03.4-.15.5l-1.02.55c-.06.03-.12.09-.15.15l-.55,1.02c-.03.06-.09.12-.15.15-.18.1-.4.03-.5-.15l-.55-1.02c-.03-.06-.09-.12-.15-.15l-1.02-.55c-.06-.03-.12-.09-.15-.15-.1-.18-.03-.4.15-.5l1.02-.55c.06-.03.12-.09.15-.15l.55-1.02c.03-.06.09-.12.15-.15.18-.1.4-.03.5.15l.55,1.02c.03.06.09.12.15.15l1.02.55h0Z" fill="#f0f7fa"/><path d="m220.32,122.31c.12.23.04.51-.19.63l-1.29.69c-.08.04-.15.11-.19.19l-.69,1.29c-.04.08-.11.15-.19.19-.23.12-.51.04-.63-.19l-.69-1.29c-.04-.08-.11-.15-.19-.19l-1.29-.69c-.08-.04-.15-.11-.19-.19-.12-.23-.04-.51.19-.63l1.29-.69c.08-.04.15-.11.19-.19l.69-1.29c.04-.08.11-.15.19-.19.23-.12.51-.04.63.19l.69,1.29c.04.08.11.15.19.19l1.29.69c.08.04.15.11.19.19Z" fill="#c9e2ed"/><path d="m309.74,148.23c.15.27.04.61-.23.76l-1.56.84c-.1.05-.18.13-.23.23l-.84,1.56c-.05.1-.13.18-.23.23-.27.15-.61.04-.76-.23l-.84-1.56c-.05-.1-.13-.18-.23-.23l-1.56-.84c-.1-.05-.18-.13-.23-.23-.15-.27-.04-.61.23-.76l1.56-.84c.1-.05.18-.13.23-.23l.84-1.56c.05-.1.13-.18.23-.23.27-.15.61-.04.76.23l.84,1.56c.05.1.13.18.23.23l1.56.84c.1.05.18.13.23.23Z" fill="#c9e2ed"/><path d="m188.28,142.21c.13.25.04.56-.21.69l-1.43.76c-.09.05-.16.12-.21.21l-.76,1.43c-.05.09-.12.16-.21.21-.25.13-.56.04-.69-.21l-.76-1.43c-.05-.09-.12-.16-.21-.21l-1.43-.76c-.09-.05-.16-.12-.21-.21-.13-.25-.04-.56.21-.69l1.43-.76c.09-.05.16-.12.21-.21l.76-1.43c.05-.09.12-.16.21-.21.25-.13.56-.04.69.21l.76,1.43c.05.09.12.16.21.21l1.43.76c.09.05.16.12.21.21Z" fill="#91c3da"/><path d="m283.48,133.26c.1.18.03.41-.15.51l-1.04.56c-.07.03-.12.09-.15.15l-.56,1.04c-.03.07-.09.12-.15.15-.18.1-.41.03-.51-.15l-.56-1.04c-.03-.07-.09-.12-.15-.15l-1.04-.56c-.07-.03-.12-.09-.15-.15-.1-.18-.03-.41.15-.51l1.04-.56c.07-.03.12-.09.15-.15l.56-1.04c.03-.07.09-.12.15-.15.18-.1.41-.03.51.15l.56,1.04c.03.07.09.12.15.15l1.04.56c.07.03.12.09.15.15Z" fill="#91c3da"/><path d="m247.09,232.18c-6.14-6.84-5.44-19.7-5.44-19.7.01-2.99,2.43-5.4,5.41-5.41,3-.01,5.45,2.41,5.46,5.41,0,0,.7,12.85-5.44,19.7Z" fill="#f0f7fa"/><path d="m233.93,203.58c-13.81,3.78-18.12,18.4-18.12,18.4-8.07-29.08,12.29-38.93,12.29-38.93l5.83,20.53Z" fill="#91c3da"/><path d="m260.43,203.58c13.81,3.78,18.12,18.4,18.12,18.4,8.07-29.08-12.29-38.93-12.29-38.93l-5.83,20.53Z" fill="#91c3da"/><path d="m254.93,208.73l.76-3.35c.02-.08.03-.17.03-.26,0-.65-.52-1.17-1.17-1.17h-15.36c-.09,0-.17,0-.26.03-.63.14-1.02.77-.88,1.4l.76,3.35c.12.53.59.91,1.14.91h13.84c.55,0,1.02-.38,1.14-.91Z" fill="#0073aa"/><path d="m226.9,175.19s2.12,19.5,8.69,31.86c7.3-2.99,15.48-2.99,22.78,0,0,0,7.53-10.43,9.07-33.4.89-13.24-.17-28.35-4.56-41.38h-30.62c-4.08,10.61-6.98,24.86-5.36,42.92Zm18.74-12.76s0,0,0,0c-4.41-1.04-7.15-5.45-6.11-9.86h0c1.04-4.41,5.45-7.15,9.86-6.11,4.41,1.04,7.15,5.45,6.11,9.86-1.04,4.41-5.45,7.15-9.86,6.11h0Z" fill="#c9e2ed"/><path d="m244.8,111.05c1.4-1.49,3.73-1.56,5.22-.17,5.89,5.58,10.06,13.05,12.86,21.39h-30.62c2.88-7.72,7.09-14.88,12.46-21.13.03-.03.05-.06.08-.09Z" fill="#0073aa"/><path d="m246.64,220.97c-9.39-25.38,0-46.72,0-46.72,10.44,25.55,0,46.72,0,46.72Z" fill="#91c3da"/><path d="m235.7,154.44h0c0,6.53,5.29,11.82,11.82,11.82s11.82-5.29,11.82-11.82-5.29-11.82-11.82-11.82c-6.53,0-11.82,5.29-11.82,11.82Zm9.94,7.99s0,0,0,0c-4.41-1.04-7.15-5.45-6.11-9.86h0c1.04-4.41,5.45-7.15,9.86-6.11,4.41,1.04,7.15,5.45,6.11,9.86-1.04,4.41-5.45,7.15-9.86,6.11h0Z" fill="#0073aa"/></g><g><path d="m37.19,50.25c-.12-.12-.18-.27-.18-.45v-15.96h-5.21c-.18,0-.33-.06-.45-.18-.12-.12-.18-.27-.18-.45v-1.14c0-.18.06-.33.18-.46.12-.13.27-.19.45-.19h13.08c.2,0,.36.06.48.18.12.12.18.28.18.48v1.14c0,.18-.06.33-.19.45-.13.12-.28.18-.46.18h-5.18v15.96c0,.18-.06.33-.19.45-.13.12-.28.18-.46.18h-1.41c-.18,0-.33-.06-.45-.18Z" fill="#2271b1"/><path d="m46.77,49.02c-1.1-1.12-1.68-2.61-1.75-4.48l-.03-1.17.03-1.17c.07-1.85.66-3.33,1.76-4.46,1.1-1.13,2.64-1.7,4.61-1.7s3.51.57,4.61,1.7c1.1,1.13,1.69,2.62,1.76,4.46.02.2.03.59.03,1.17s0,.97-.03,1.17c-.07,1.86-.66,3.36-1.75,4.48-1.1,1.12-2.64,1.68-4.63,1.68s-3.53-.56-4.63-1.68Zm7.33-1.49c.66-.72,1.02-1.76,1.07-3.12.02-.18.03-.52.03-1.03s0-.85-.03-1.03c-.05-1.36-.41-2.4-1.07-3.12s-1.56-1.09-2.7-1.09-2.04.36-2.71,1.09-1.02,1.76-1.06,3.12l-.03,1.03.03,1.03c.04,1.36.39,2.4,1.06,3.12.67.72,1.57,1.09,2.71,1.09s2.04-.36,2.7-1.09Z" fill="#2271b1"/><path d="m62.28,45.65v-7.17h-2.12c-.18,0-.33-.06-.45-.18-.12-.12-.18-.27-.18-.45v-.92c0-.18.06-.33.18-.45s.27-.18.45-.18h2.12v-4.53c0-.18.06-.33.18-.45s.27-.18.45-.18h1.28c.18,0,.33.06.45.18.12.12.18.27.18.45v4.53h3.37c.18,0,.33.06.45.18.12.12.18.27.18.45v.92c0,.18-.06.33-.18.45-.12.12-.27.18-.45.18h-3.37v6.98c0,.9.15,1.59.46,2.05.31.46.81.69,1.52.69h1.66c.18,0,.33.06.45.18.12.12.18.27.18.45v.98c0,.18-.06.33-.18.45s-.27.18-.45.18h-1.87c-2.86,0-4.29-1.59-4.29-4.78Z" fill="#2271b1"/><path d="m73.14,50.16c-.76-.36-1.36-.85-1.81-1.48-.44-.62-.66-1.32-.66-2.08,0-1.19.49-2.18,1.48-2.94.99-.77,2.32-1.27,4-1.51l4.04-.57v-.79c0-1.85-1.06-2.77-3.18-2.77-.8,0-1.45.17-1.95.5-.51.33-.89.73-1.14,1.18-.05.16-.12.28-.2.35s-.19.11-.34.11h-1.17c-.16,0-.3-.06-.42-.18s-.18-.26-.18-.42c.02-.43.22-.93.61-1.48.39-.55.99-1.03,1.8-1.44.81-.41,1.82-.61,3.01-.61,2.03,0,3.48.48,4.37,1.42.89.95,1.33,2.13,1.33,3.54v8.79c0,.18-.06.33-.18.45s-.27.18-.45.18h-1.25c-.18,0-.33-.06-.45-.18s-.18-.27-.18-.45v-1.17c-.4.58-.98,1.07-1.74,1.47-.76.4-1.73.6-2.9.6-.89,0-1.71-.18-2.47-.54Zm5.93-2.65c.75-.77,1.13-1.88,1.13-3.32v-.76l-3.15.46c-1.29.18-2.25.48-2.9.91-.65.43-.98.96-.98,1.61,0,.72.3,1.28.9,1.67.6.39,1.3.58,2.12.58,1.18,0,2.14-.38,2.89-1.15Z" fill="#2271b1"/><path d="m86.86,50.25c-.12-.12-.18-.27-.18-.45v-18.02c0-.18.06-.33.18-.45.12-.12.27-.18.45-.18h1.28c.18,0,.33.06.45.18.12.12.18.27.18.45v18.02c0,.18-.06.33-.18.45-.12.12-.27.18-.45.18h-1.28c-.18,0-.33-.06-.45-.18Z" fill="#2271b1"/><path d="m93.78,50.25c-.12-.12-.18-.27-.18-.45v-17.72c0-.2.06-.36.18-.48.12-.12.27-.18.45-.18h6.89c2.04,0,3.65.5,4.83,1.49,1.18,1,1.76,2.43,1.76,4.32s-.58,3.32-1.75,4.3c-1.17.99-2.78,1.48-4.84,1.48h-4.8v6.79c0,.18-.06.33-.19.45s-.28.18-.46.18h-1.44c-.18,0-.33-.06-.45-.18Zm7.21-9.51c1.32,0,2.32-.3,3-.9s1.02-1.47,1.02-2.61-.33-2.01-1-2.62c-.67-.61-1.67-.91-3.01-.91h-4.7v7.03h4.7Z" fill="#2271b1"/><path d="m111.64,49.02c-1.1-1.12-1.68-2.61-1.75-4.48l-.03-1.17.03-1.17c.07-1.85.66-3.33,1.76-4.46,1.1-1.13,2.64-1.7,4.61-1.7s3.51.57,4.61,1.7c1.1,1.13,1.69,2.62,1.76,4.46.02.2.03.59.03,1.17s0,.97-.03,1.17c-.07,1.86-.66,3.36-1.75,4.48-1.1,1.12-2.64,1.68-4.63,1.68s-3.53-.56-4.63-1.68Zm7.33-1.49c.66-.72,1.02-1.76,1.07-3.12.02-.18.03-.52.03-1.03s0-.85-.03-1.03c-.05-1.36-.41-2.4-1.07-3.12s-1.56-1.09-2.7-1.09-2.04.36-2.71,1.09-1.02,1.76-1.06,3.12l-.03,1.03.03,1.03c.04,1.36.39,2.4,1.06,3.12.67.72,1.57,1.09,2.71,1.09s2.04-.36,2.7-1.09Z" fill="#2271b1"/><path d="m126.27,50.25c-.12-.12-.18-.27-.18-.45v-18.02c0-.18.06-.33.18-.45.12-.12.27-.18.45-.18h1.28c.18,0,.33.06.45.18.12.12.18.27.18.45v18.02c0,.18-.06.33-.18.45-.12.12-.27.18-.45.18h-1.28c-.18,0-.33-.06-.45-.18Z" fill="#2271b1"/><path d="m132.86,50.25c-.12-.12-.18-.27-.18-.45v-18.02c0-.18.06-.33.18-.45.12-.12.27-.18.45-.18h1.28c.18,0,.33.06.45.18.12.12.18.27.18.45v18.02c0,.18-.06.33-.18.45-.12.12-.27.18-.45.18h-1.28c-.18,0-.33-.06-.45-.18Z" fill="#2271b1"/><path d="m146.43,50.25c-.12-.12-.18-.27-.18-.45v-17.72c0-.2.06-.36.18-.48.12-.12.27-.18.45-.18h6.89c2.04,0,3.65.5,4.83,1.49,1.18,1,1.76,2.43,1.76,4.32s-.58,3.32-1.75,4.3c-1.17.99-2.78,1.48-4.84,1.48h-4.8v6.79c0,.18-.06.33-.19.45s-.28.18-.46.18h-1.44c-.18,0-.33-.06-.45-.18Zm7.21-9.51c1.32,0,2.32-.3,3-.9s1.02-1.47,1.02-2.61-.33-2.01-1-2.62c-.67-.61-1.67-.91-3.01-.91h-4.7v7.03h4.7Z" fill="#2271b1"/><path d="m163.5,50.25c-.12-.12-.18-.27-.18-.45v-12.84c0-.18.06-.33.18-.46.12-.13.27-.19.45-.19h1.25c.18,0,.33.06.46.19.13.13.19.28.19.46v1.19c.74-1.23,2.01-1.85,3.8-1.85h1.06c.18,0,.33.06.45.18.12.12.18.27.18.45v1.11c0,.18-.06.33-.18.43-.12.11-.27.16-.45.16h-1.63c-.98,0-1.75.29-2.31.85-.56.57-.84,1.34-.84,2.32v7.98c0,.18-.06.33-.19.45s-.28.18-.46.18h-1.33c-.18,0-.33-.06-.45-.18Z" fill="#2271b1"/><path d="m174.52,49.02c-1.1-1.12-1.68-2.61-1.75-4.48l-.03-1.17.03-1.17c.07-1.85.66-3.33,1.76-4.46,1.1-1.13,2.64-1.7,4.61-1.7s3.51.57,4.61,1.7c1.1,1.13,1.69,2.62,1.77,4.46.02.2.03.59.03,1.17s0,.97-.03,1.17c-.07,1.86-.66,3.36-1.75,4.48-1.09,1.12-2.64,1.68-4.63,1.68s-3.53-.56-4.63-1.68Zm7.33-1.49c.66-.72,1.02-1.76,1.07-3.12.02-.18.03-.52.03-1.03s0-.85-.03-1.03c-.05-1.36-.41-2.4-1.07-3.12-.66-.72-1.56-1.09-2.7-1.09s-2.04.36-2.71,1.09-1.02,1.76-1.06,3.12l-.03,1.03.03,1.03c.04,1.36.39,2.4,1.06,3.12.67.72,1.57,1.09,2.71,1.09s2.04-.36,2.7-1.09Z" fill="#2271b1"/></g><g opacity=".65"><path d="m32.06,77.88c-.06-.06-.09-.15-.09-.25v-10.23c0-.1.03-.19.09-.26.06-.07.15-.1.25-.1h6.09c.11,0,.2.03.27.09.06.06.09.15.09.27v.23c0,.1-.03.19-.1.25-.07.06-.15.09-.26.09h-5.45v3.98h5.11c.11,0,.2.03.27.09s.09.15.09.27v.23c0,.1-.03.19-.1.25s-.15.09-.26.09h-5.11v4.14h5.57c.11,0,.2.03.27.09.06.06.09.15.09.27v.23c0,.1-.03.19-.1.25-.07.06-.15.09-.26.09h-6.21c-.1,0-.19-.03-.25-.09Z" fill="#435765"/><path d="m41.1,77.88c-.06-.06-.09-.15-.09-.25v-7.43c0-.1.03-.19.09-.25s.15-.09.25-.09h.27c.1,0,.19.03.25.09s.09.15.09.25v.73c.31-.41.67-.71,1.07-.92.4-.21.92-.31,1.55-.31,1.02,0,1.81.33,2.36.98.55.65.83,1.49.83,2.52v4.43c0,.1-.03.19-.09.25s-.15.09-.25.09h-.27c-.1,0-.19-.03-.25-.09s-.09-.15-.09-.25v-4.36c0-.84-.21-1.5-.62-1.97s-1-.7-1.77-.7-1.35.24-1.8.71c-.45.47-.67,1.13-.67,1.96v4.36c0,.1-.03.19-.09.25s-.15.09-.25.09h-.27c-.1,0-.19-.03-.25-.09Z" fill="#435765"/><path d="m48.64,80.85c-.06-.06-.09-.15-.09-.25v-.22c0-.1.03-.19.09-.25.06-.06.15-.09.25-.09h.06c.57,0,.95-.15,1.13-.44.18-.29.27-.72.27-1.28v-8.12c0-.1.03-.19.09-.25s.15-.09.25-.09h.27c.1,0,.19.03.25.09.06.06.09.15.09.25v8.12c0,.82-.17,1.47-.52,1.93-.34.46-.96.69-1.84.69h-.06c-.1,0-.19-.03-.25-.09Zm1.64-12.76c-.06-.06-.09-.15-.09-.25v-.59c0-.1.03-.19.09-.26s.15-.1.25-.1h.59c.1,0,.19.03.26.1s.1.15.1.26v.59c0,.1-.03.19-.1.25s-.15.09-.26.09h-.59c-.1,0-.19-.03-.25-.09Z" fill="#435765"/><path d="m54.43,77.14c-.6-.66-.91-1.52-.94-2.57l-.02-.66.02-.66c.03-1.05.35-1.91.94-2.57.6-.66,1.44-.99,2.52-.99s1.92.33,2.52.99c.6.66.91,1.52.94,2.57.01.1.02.32.02.66s0,.55-.02.66c-.03,1.05-.35,1.91-.94,2.57-.6.66-1.44.99-2.52.99s-1.92-.33-2.52-.99Zm4.31-.62c.45-.47.69-1.15.73-2.02.01-.1.02-.3.02-.58s0-.47-.02-.58c-.03-.87-.27-1.55-.73-2.02-.45-.47-1.05-.71-1.79-.71s-1.33.24-1.79.71-.69,1.15-.73,2.02l-.02.58.02.58c.03.87.27,1.55.73,2.02s1.05.71,1.79.71,1.33-.24,1.79-.71Z" fill="#435765"/><path d="m63.43,80.85c-.06-.06-.09-.14-.09-.22,0-.05.03-.16.09-.31l1.2-2.81-2.98-7.03c-.06-.16-.09-.26-.09-.31,0-.08.03-.16.09-.22s.14-.09.22-.09h.33c.17,0,.29.08.36.23l2.62,6.18,2.69-6.18c.08-.16.2-.23.36-.23h.31c.08,0,.16.03.22.09s.09.14.09.22c0,.05-.03.16-.09.31l-4.43,10.23c-.07.16-.19.23-.36.23h-.31c-.08,0-.16-.03-.22-.09Z" fill="#435765"/><path d="m76.47,77.88c-.06-.06-.09-.15-.09-.25v-9.65h-3.09c-.1,0-.19-.03-.25-.09s-.09-.15-.09-.25v-.23c0-.1.03-.19.09-.26.06-.07.15-.1.25-.1h7.15c.11,0,.2.03.27.09.06.06.09.15.09.27v.23c0,.1-.03.19-.1.25-.07.06-.15.09-.26.09h-3.08v9.65c0,.1-.03.19-.1.25-.07.06-.15.09-.26.09h-.28c-.1,0-.19-.03-.25-.09Z" fill="#435765"/><path d="m81.5,77.14c-.6-.66-.91-1.52-.94-2.57l-.02-.66.02-.66c.03-1.05.35-1.91.94-2.57.6-.66,1.44-.99,2.52-.99s1.92.33,2.52.99c.6.66.91,1.52.94,2.57.01.1.02.32.02.66s0,.55-.02.66c-.03,1.05-.35,1.91-.94,2.57-.6.66-1.44.99-2.52.99s-1.92-.33-2.52-.99Zm4.31-.62c.45-.47.69-1.15.73-2.02.01-.1.02-.3.02-.58s0-.47-.02-.58c-.03-.87-.27-1.55-.73-2.02-.45-.47-1.05-.71-1.79-.71s-1.33.24-1.79.71-.69,1.15-.73,2.02l-.02.58.02.58c.03.87.27,1.55.73,2.02s1.05.71,1.79.71,1.33-.24,1.79-.71Z" fill="#435765"/><path d="m90.64,77.28c-.32-.46-.48-1.1-.48-1.91v-4.61h-1.22c-.1,0-.19-.03-.25-.09s-.09-.15-.09-.25v-.22c0-.1.03-.19.09-.25s.15-.09.25-.09h1.22v-2.62c0-.1.03-.19.09-.25s.15-.09.25-.09h.27c.1,0,.19.03.25.09s.09.15.09.25v2.62h1.94c.1,0,.19.03.25.09s.09.15.09.25v.22c0,.1-.03.19-.09.25s-.15.09-.25.09h-1.94v4.54c0,.58.1,1.02.29,1.32s.51.44.96.44h.84c.1,0,.19.03.25.09s.09.15.09.25v.22c0,.1-.03.19-.09.25s-.15.09-.25.09h-.92c-.77,0-1.32-.23-1.64-.69Z" fill="#435765"/><path d="m95.95,77.82c-.43-.21-.77-.49-1.02-.84-.25-.35-.38-.74-.38-1.17,0-.69.28-1.25.84-1.69.56-.44,1.31-.72,2.26-.84l2.47-.34v-.55c0-.57-.17-1.01-.52-1.32-.35-.31-.88-.46-1.6-.46-.53,0-.97.1-1.3.31-.34.21-.55.46-.65.75-.04.12-.09.21-.15.26s-.13.07-.23.07h-.22c-.09,0-.17-.03-.24-.1-.07-.07-.1-.15-.1-.24,0-.23.1-.5.31-.8.21-.31.53-.58.97-.8.44-.23.97-.34,1.61-.34,1.11,0,1.9.27,2.37.8.47.53.7,1.18.7,1.94v5.2c0,.1-.03.19-.09.25s-.15.09-.25.09h-.27c-.1,0-.19-.03-.25-.09-.06-.06-.09-.15-.09-.25v-.73c-.23.34-.56.63-1.01.87s-1.03.36-1.76.36c-.5,0-.96-.1-1.39-.31Zm3.42-1.34c.49-.5.73-1.22.73-2.15v-.53l-2.01.28c-.85.11-1.5.31-1.94.59-.44.28-.66.64-.66,1.06,0,.48.2.85.6,1.11.4.26.87.39,1.4.39.76,0,1.38-.25,1.87-.75Z" fill="#435765"/><path d="m103.63,77.88c-.06-.06-.09-.15-.09-.25v-10.4c0-.1.03-.19.09-.25s.15-.09.25-.09h.27c.1,0,.19.03.25.09s.09.15.09.25v10.4c0,.1-.03.19-.09.25s-.15.09-.25.09h-.27c-.1,0-.19-.03-.25-.09Z" fill="#435765"/><path d="m107.33,77.88c-.06-.06-.09-.15-.09-.25v-10.23c0-.1.03-.19.09-.26.06-.07.15-.1.25-.1h3.79c1.11,0,1.99.28,2.63.83.64.56.96,1.36.96,2.4s-.32,1.84-.96,2.4c-.64.56-1.52.84-2.63.84h-3.15v4.12c0,.1-.03.19-.1.25-.07.06-.15.09-.26.09h-.28c-.1,0-.19-.03-.25-.09Zm3.97-5.31c.9,0,1.57-.2,2.01-.59.45-.39.67-.96.67-1.71s-.22-1.32-.67-1.71c-.45-.39-1.12-.59-2.01-.59h-3.08v4.59h3.08Z" fill="#435765"/><path d="m117.3,77.14c-.6-.66-.91-1.52-.94-2.57l-.02-.66.02-.66c.03-1.05.35-1.91.94-2.57.6-.66,1.44-.99,2.52-.99s1.92.33,2.52.99c.6.66.91,1.52.94,2.57.01.1.02.32.02.66s0,.55-.02.66c-.03,1.05-.35,1.91-.94,2.57-.6.66-1.44.99-2.52.99s-1.92-.33-2.52-.99Zm4.31-.62c.45-.47.69-1.15.73-2.02.01-.1.02-.3.02-.58s0-.47-.02-.58c-.03-.87-.27-1.55-.73-2.02-.45-.47-1.05-.71-1.79-.71s-1.33.24-1.79.71-.69,1.15-.73,2.02l-.02.58.02.58c.03.87.27,1.55.73,2.02s1.05.71,1.79.71,1.33-.24,1.79-.71Z" fill="#435765"/><path d="m125.55,77.88c-.06-.06-.09-.15-.09-.25v-10.4c0-.1.03-.19.09-.25s.15-.09.25-.09h.27c.1,0,.19.03.25.09s.09.15.09.25v10.4c0,.1-.03.19-.09.25s-.15.09-.25.09h-.27c-.1,0-.19-.03-.25-.09Z" fill="#435765"/><path d="m129.07,77.88c-.06-.06-.09-.15-.09-.25v-10.4c0-.1.03-.19.09-.25s.15-.09.25-.09h.27c.1,0,.19.03.25.09s.09.15.09.25v10.4c0,.1-.03.19-.09.25s-.15.09-.25.09h-.27c-.1,0-.19-.03-.25-.09Z" fill="#435765"/><path d="m137.05,77.88c-.06-.06-.09-.15-.09-.25v-6.87h-1.39c-.1,0-.19-.03-.25-.09-.06-.06-.09-.15-.09-.25v-.22c0-.1.03-.19.09-.25.06-.06.15-.09.25-.09h1.39v-.89c0-.79.17-1.41.52-1.87.34-.45.96-.68,1.84-.68h.81c.1,0,.19.03.25.09s.09.15.09.25v.22c0,.1-.03.19-.09.25s-.15.09-.25.09h-.81c-.53,0-.9.14-1.1.41s-.3.71-.3,1.3v.81h2.06c.1,0,.19.03.25.09s.09.15.09.25v.22c0,.1-.03.19-.09.25s-.15.09-.25.09h-2.06v6.87c0,.1-.03.19-.09.25s-.15.09-.25.09h-.27c-.1,0-.19-.03-.25-.09Z" fill="#435765"/><path d="m142.26,77.15c-.6-.65-.95-1.52-1.03-2.62l-.02-.62.02-.62c.08-1.08.42-1.95,1.02-2.61s1.4-.98,2.4-.98c1.08,0,1.93.36,2.54,1.08s.91,1.7.91,2.95v.23c0,.1-.03.19-.1.25-.07.06-.15.09-.26.09h-5.56v.16c.02.49.13.94.34,1.37.2.42.49.76.85,1.02s.79.38,1.28.38c.57,0,1.04-.11,1.4-.34.36-.22.62-.45.77-.68.09-.12.16-.2.21-.23s.13-.05.26-.05h.25c.09,0,.17.03.23.08.06.05.09.12.09.2,0,.22-.14.48-.41.79-.28.31-.66.57-1.15.8s-1.04.34-1.65.34c-.99,0-1.79-.33-2.39-.98Zm4.89-3.72v-.06c0-.8-.23-1.46-.68-1.98-.45-.52-1.06-.78-1.82-.78s-1.36.26-1.8.78-.66,1.18-.66,1.98v.06h4.97Z" fill="#435765"/><path d="m150.96,77.82c-.43-.21-.77-.49-1.02-.84-.25-.35-.38-.74-.38-1.17,0-.69.28-1.25.84-1.69.56-.44,1.31-.72,2.26-.84l2.47-.34v-.55c0-.57-.17-1.01-.52-1.32-.35-.31-.88-.46-1.6-.46-.53,0-.97.1-1.3.31-.34.21-.55.46-.65.75-.04.12-.09.21-.15.26s-.13.07-.23.07h-.22c-.09,0-.17-.03-.24-.1-.07-.07-.1-.15-.1-.24,0-.23.1-.5.31-.8.21-.31.53-.58.97-.8.44-.23.97-.34,1.61-.34,1.11,0,1.9.27,2.37.8.47.53.7,1.18.7,1.94v5.2c0,.1-.03.19-.09.25s-.15.09-.25.09h-.27c-.1,0-.19-.03-.25-.09-.06-.06-.09-.15-.09-.25v-.73c-.23.34-.56.63-1.01.87s-1.03.36-1.76.36c-.5,0-.96-.1-1.39-.31Zm3.42-1.34c.49-.5.73-1.22.73-2.15v-.53l-2.01.28c-.85.11-1.5.31-1.94.59-.44.28-.66.64-.66,1.06,0,.48.2.85.6,1.11.4.26.87.39,1.4.39.76,0,1.38-.25,1.87-.75Z" fill="#435765"/><path d="m159.54,77.28c-.32-.46-.48-1.1-.48-1.91v-4.61h-1.22c-.1,0-.19-.03-.25-.09s-.09-.15-.09-.25v-.22c0-.1.03-.19.09-.25s.15-.09.25-.09h1.22v-2.62c0-.1.03-.19.09-.25s.15-.09.25-.09h.27c.1,0,.19.03.25.09s.09.15.09.25v2.62h1.94c.1,0,.19.03.25.09s.09.15.09.25v.22c0,.1-.03.19-.09.25s-.15.09-.25.09h-1.94v4.54c0,.58.1,1.02.29,1.32s.51.44.96.44h.84c.1,0,.19.03.25.09s.09.15.09.25v.22c0,.1-.03.19-.09.25s-.15.09-.25.09h-.92c-.77,0-1.32-.23-1.64-.69Z" fill="#435765"/><path d="m164.77,77.16c-.53-.65-.8-1.49-.8-2.53v-4.43c0-.1.03-.19.09-.25s.15-.09.25-.09h.27c.1,0,.19.03.25.09s.09.15.09.25v4.36c0,1.78.78,2.67,2.33,2.67.75,0,1.35-.24,1.79-.71.44-.47.66-1.13.66-1.96v-4.36c0-.1.03-.19.09-.25s.15-.09.25-.09h.27c.1,0,.19.03.25.09s.09.15.09.25v7.43c0,.1-.03.19-.09.25s-.15.09-.25.09h-.27c-.1,0-.19-.03-.25-.09s-.09-.15-.09-.25v-.73c-.31.41-.67.71-1.07.92s-.91.31-1.54.31c-1.02,0-1.8-.32-2.33-.97Z" fill="#435765"/><path d="m173.28,77.88c-.06-.06-.09-.15-.09-.25v-7.42c0-.1.03-.19.09-.26.06-.07.15-.1.25-.1h.25c.1,0,.19.03.26.1.07.07.1.15.1.26v.72c.37-.72,1.08-1.08,2.12-1.08h.58c.1,0,.19.03.25.09s.09.15.09.25v.22c0,.1-.03.19-.09.25s-.15.09-.25.09h-.67c-.62,0-1.12.18-1.48.55s-.55.86-.55,1.48v4.84c0,.1-.03.19-.1.25-.07.06-.15.09-.26.09h-.25c-.1,0-.19-.03-.25-.09Z" fill="#435765"/><path d="m179.06,77.15c-.61-.65-.95-1.52-1.03-2.62l-.02-.62.02-.62c.08-1.08.42-1.95,1.02-2.61.6-.66,1.4-.98,2.4-.98,1.08,0,1.93.36,2.54,1.08.61.72.91,1.7.91,2.95v.23c0,.1-.03.19-.1.25-.07.06-.15.09-.26.09h-5.56v.16c.02.49.13.94.33,1.37.2.42.49.76.85,1.02.37.25.79.38,1.28.38.57,0,1.04-.11,1.4-.34.36-.22.62-.45.77-.68.09-.12.16-.2.21-.23s.13-.05.26-.05h.25c.09,0,.17.03.23.08.06.05.09.12.09.2,0,.22-.14.48-.41.79-.28.31-.66.57-1.15.8-.49.22-1.04.34-1.65.34-.99,0-1.79-.33-2.39-.98Zm4.89-3.72v-.06c0-.8-.23-1.46-.68-1.98s-1.06-.78-1.82-.78-1.36.26-1.8.78c-.44.52-.66,1.18-.66,1.98v.06h4.96Z" fill="#435765"/><path d="m187.83,77.79c-.46-.23-.81-.49-1.05-.78-.23-.29-.35-.53-.35-.7,0-.09.04-.17.11-.23.07-.06.15-.09.23-.09h.23c.07,0,.13.01.18.04s.1.08.16.16c.23.32.51.58.83.76s.78.27,1.35.27c.65,0,1.17-.12,1.56-.37s.59-.6.59-1.05c0-.28-.08-.51-.24-.69-.16-.18-.42-.33-.78-.46-.36-.13-.89-.28-1.6-.44-.93-.21-1.56-.49-1.9-.86-.34-.36-.51-.83-.51-1.39,0-.38.11-.75.32-1.09.21-.34.53-.62.95-.84.42-.22.93-.33,1.52-.33.62,0,1.15.11,1.58.32s.75.46.97.74c.21.28.32.51.32.69,0,.09-.03.17-.1.23s-.15.09-.24.09h-.23c-.15,0-.26-.07-.34-.2-.21-.31-.45-.55-.71-.71-.27-.16-.68-.24-1.24-.24-.6,0-1.06.12-1.37.38-.31.25-.47.58-.47.98,0,.25.06.46.19.62s.36.32.7.46c.34.14.84.28,1.5.43.97.22,1.65.51,2.04.87.4.36.59.85.59,1.45,0,.43-.12.82-.36,1.17-.24.35-.59.63-1.06.84-.47.21-1.03.31-1.69.31s-1.25-.11-1.71-.34Z" fill="#435765"/><path d="m200.11,77.88c-.07-.06-.14-.16-.19-.3l-2.2-7.24-.03-.17c0-.08.03-.16.09-.22s.14-.09.22-.09h.3c.09,0,.17.03.23.08.06.05.1.1.11.16l1.92,6.5,2.05-6.42c.02-.08.07-.16.14-.22.07-.06.17-.09.28-.09h.31c.11,0,.21.03.28.09.07.06.12.14.14.22l2.04,6.42,1.92-6.5c0-.05.05-.1.11-.16.06-.05.14-.08.23-.08h.3c.08,0,.16.03.22.09s.09.14.09.22l-.03.17-2.2,7.24c-.05.14-.12.23-.19.3-.07.06-.18.09-.31.09h-.27c-.28,0-.46-.13-.53-.39l-1.97-6.15-1.97,6.15c-.07.26-.25.39-.53.39h-.27c-.13,0-.24-.03-.31-.09Z" fill="#435765"/><path d="m210.51,68.09c-.06-.06-.09-.15-.09-.25v-.59c0-.1.03-.19.09-.26s.15-.1.25-.1h.59c.1,0,.19.03.26.1s.1.15.1.26v.59c0,.1-.03.19-.1.25s-.15.09-.26.09h-.59c-.1,0-.19-.03-.25-.09Zm.17,9.79c-.06-.06-.09-.15-.09-.25v-7.43c0-.1.03-.19.09-.25s.15-.09.25-.09h.27c.1,0,.19.03.25.09s.09.15.09.25v7.43c0,.1-.03.19-.09.25s-.15.09-.25.09h-.27c-.1,0-.19-.03-.25-.09Z" fill="#435765"/><path d="m215.16,77.28c-.32-.46-.48-1.1-.48-1.91v-4.61h-1.22c-.1,0-.19-.03-.25-.09s-.09-.15-.09-.25v-.22c0-.1.03-.19.09-.25s.15-.09.25-.09h1.22v-2.62c0-.1.03-.19.09-.25.06-.06.15-.09.25-.09h.27c.1,0,.19.03.25.09s.09.15.09.25v2.62h1.94c.1,0,.19.03.25.09s.09.15.09.25v.22c0,.1-.03.19-.09.25s-.15.09-.25.09h-1.94v4.54c0,.58.1,1.02.29,1.32.19.3.51.44.96.44h.84c.1,0,.19.03.25.09s.09.15.09.25v.22c0,.1-.03.19-.09.25s-.15.09-.25.09h-.92c-.77,0-1.32-.23-1.64-.69Z" fill="#435765"/><path d="m219.78,77.88c-.06-.06-.09-.15-.09-.25v-10.4c0-.1.03-.19.09-.25s.15-.09.25-.09h.27c.1,0,.19.03.25.09s.09.15.09.25v3.7c.31-.41.67-.71,1.07-.92.4-.21.92-.31,1.55-.31,1.02,0,1.81.33,2.36.98.55.65.83,1.49.83,2.52v4.43c0,.1-.03.19-.09.25s-.15.09-.25.09h-.27c-.1,0-.19-.03-.25-.09s-.09-.15-.09-.25v-4.36c0-.84-.21-1.5-.62-1.97s-1-.7-1.77-.7-1.35.24-1.79.71c-.45.47-.67,1.13-.67,1.96v4.36c0,.1-.03.19-.09.25s-.15.09-.25.09h-.27c-.1,0-.19-.03-.25-.09Z" fill="#435765"/><path d="m229.47,77.14c-.6-.66-.91-1.52-.95-2.57l-.02-.66.02-.66c.03-1.05.35-1.91.95-2.57.6-.66,1.44-.99,2.52-.99s1.92.33,2.52.99c.6.66.91,1.52.94,2.57.01.1.02.32.02.66s0,.55-.02.66c-.03,1.05-.35,1.91-.94,2.57-.6.66-1.44.99-2.52.99s-1.92-.33-2.52-.99Zm4.31-.62c.45-.47.7-1.15.73-2.02,0-.1.02-.3.02-.58s0-.47-.02-.58c-.03-.87-.27-1.55-.73-2.02-.45-.47-1.05-.71-1.79-.71s-1.33.24-1.79.71-.69,1.15-.73,2.02l-.02.58.02.58c.03.87.27,1.55.73,2.02s1.05.71,1.79.71,1.33-.24,1.79-.71Z" fill="#435765"/><path d="m238.33,77.16c-.53-.65-.8-1.49-.8-2.53v-4.43c0-.1.03-.19.09-.25s.15-.09.25-.09h.27c.1,0,.19.03.25.09s.09.15.09.25v4.36c0,1.78.78,2.67,2.33,2.67.75,0,1.34-.24,1.79-.71s.66-1.13.66-1.96v-4.36c0-.1.03-.19.09-.25s.15-.09.25-.09h.27c.1,0,.19.03.25.09s.09.15.09.25v7.43c0,.1-.03.19-.09.25s-.15.09-.25.09h-.27c-.1,0-.19-.03-.25-.09s-.09-.15-.09-.25v-.73c-.31.41-.67.71-1.07.92-.4.21-.91.31-1.54.31-1.02,0-1.8-.32-2.33-.97Z" fill="#435765"/><path d="m247.84,77.28c-.32-.46-.48-1.1-.48-1.91v-4.61h-1.22c-.1,0-.19-.03-.25-.09s-.09-.15-.09-.25v-.22c0-.1.03-.19.09-.25s.15-.09.25-.09h1.22v-2.62c0-.1.03-.19.09-.25.06-.06.15-.09.25-.09h.27c.1,0,.19.03.25.09s.09.15.09.25v2.62h1.94c.1,0,.19.03.25.09s.09.15.09.25v.22c0,.1-.03.19-.09.25s-.15.09-.25.09h-1.94v4.54c0,.58.1,1.02.29,1.32.19.3.51.44.96.44h.84c.1,0,.19.03.25.09s.09.15.09.25v.22c0,.1-.03.19-.09.25s-.15.09-.25.09h-.92c-.77,0-1.32-.23-1.64-.69Z" fill="#435765"/><path d="m256.49,77.88c-.06-.06-.09-.15-.09-.25v-10.4c0-.1.03-.19.09-.25s.15-.09.25-.09h.27c.1,0,.19.03.25.09s.09.15.09.25v10.4c0,.1-.03.19-.09.25s-.15.09-.25.09h-.27c-.1,0-.19-.03-.25-.09Z" fill="#435765"/><path d="m259.81,68.09c-.06-.06-.09-.15-.09-.25v-.59c0-.1.03-.19.09-.26s.15-.1.25-.1h.59c.1,0,.19.03.26.1s.1.15.1.26v.59c0,.1-.03.19-.1.25s-.15.09-.26.09h-.59c-.1,0-.19-.03-.25-.09Zm.17,9.79c-.06-.06-.09-.15-.09-.25v-7.43c0-.1.03-.19.09-.25s.15-.09.25-.09h.27c.1,0,.19.03.25.09s.09.15.09.25v7.43c0,.1-.03.19-.09.25s-.15.09-.25.09h-.27c-.1,0-.19-.03-.25-.09Z" fill="#435765"/><path d="m263.47,77.88c-.06-.06-.09-.15-.09-.25v-7.43c0-.1.03-.19.09-.25s.15-.09.25-.09h.27c.1,0,.19.03.25.09s.09.15.09.25v.55c.27-.34.59-.6.95-.78.36-.18.79-.27,1.29-.27,1.17,0,2,.49,2.5,1.47.25-.45.61-.8,1.07-1.07s.99-.4,1.58-.4c.86,0,1.57.29,2.11.88.54.59.81,1.42.81,2.51v4.54c0,.1-.03.19-.09.25s-.15.09-.25.09h-.27c-.1,0-.19-.03-.25-.09s-.09-.15-.09-.25v-4.39c0-.95-.2-1.62-.58-2.03-.39-.41-.9-.61-1.54-.61-.56,0-1.05.21-1.46.62-.41.41-.62,1.09-.62,2.02v4.39c0,.1-.03.19-.09.25-.06.06-.15.09-.25.09h-.27c-.1,0-.19-.03-.25-.09s-.09-.15-.09-.25v-4.39c0-.94-.2-1.61-.61-2.02-.41-.41-.91-.62-1.51-.62-.56,0-1.05.21-1.46.62-.41.41-.62,1.08-.62,2.01v4.4c0,.1-.03.19-.09.25s-.15.09-.25.09h-.27c-.1,0-.19-.03-.25-.09Z" fill="#435765"/><path d="m277,68.09c-.06-.06-.09-.15-.09-.25v-.59c0-.1.03-.19.09-.26s.15-.1.25-.1h.59c.1,0,.19.03.26.1s.1.15.1.26v.59c0,.1-.03.19-.1.25s-.15.09-.26.09h-.59c-.1,0-.19-.03-.25-.09Zm.17,9.79c-.06-.06-.09-.15-.09-.25v-7.43c0-.1.03-.19.09-.25s.15-.09.25-.09h.27c.1,0,.19.03.25.09s.09.15.09.25v7.43c0,.1-.03.19-.09.25s-.15.09-.25.09h-.27c-.1,0-.19-.03-.25-.09Z" fill="#435765"/><path d="m281.66,77.28c-.32-.46-.48-1.1-.48-1.91v-4.61h-1.22c-.1,0-.19-.03-.25-.09s-.09-.15-.09-.25v-.22c0-.1.03-.19.09-.25s.15-.09.25-.09h1.22v-2.62c0-.1.03-.19.09-.25.06-.06.15-.09.25-.09h.27c.1,0,.19.03.25.09s.09.15.09.25v2.62h1.94c.1,0,.19.03.25.09s.09.15.09.25v.22c0,.1-.03.19-.09.25s-.15.09-.25.09h-1.94v4.54c0,.58.1,1.02.29,1.32.19.3.51.44.96.44h.84c.1,0,.19.03.25.09s.09.15.09.25v.22c0,.1-.03.19-.09.25s-.15.09-.25.09h-.92c-.77,0-1.32-.23-1.64-.69Z" fill="#435765"/><path d="m287.04,77.79c-.46-.23-.81-.49-1.05-.78-.23-.29-.35-.53-.35-.7,0-.09.04-.17.11-.23.07-.06.15-.09.23-.09h.23c.07,0,.13.01.18.04s.1.08.16.16c.23.32.51.58.83.76s.78.27,1.35.27c.65,0,1.17-.12,1.56-.37s.59-.6.59-1.05c0-.28-.08-.51-.24-.69-.16-.18-.42-.33-.78-.46-.36-.13-.89-.28-1.6-.44-.93-.21-1.56-.49-1.9-.86-.34-.36-.51-.83-.51-1.39,0-.38.11-.75.32-1.09.21-.34.53-.62.95-.84.42-.22.93-.33,1.52-.33.62,0,1.15.11,1.58.32s.75.46.97.74c.21.28.32.51.32.69,0,.09-.03.17-.1.23s-.15.09-.24.09h-.23c-.15,0-.26-.07-.34-.2-.21-.31-.45-.55-.71-.71-.27-.16-.68-.24-1.24-.24-.6,0-1.06.12-1.37.38-.31.25-.47.58-.47.98,0,.25.06.46.19.62s.36.32.7.46c.34.14.84.28,1.5.43.97.22,1.65.51,2.04.87.4.36.59.85.59,1.45,0,.43-.12.82-.36,1.17-.24.35-.59.63-1.06.84-.47.21-1.03.31-1.69.31s-1.25-.11-1.71-.34Z" fill="#435765"/><path d="m293.79,77.88c-.06-.06-.09-.15-.09-.25v-.59c0-.1.03-.19.09-.26s.15-.1.25-.1h.59c.1,0,.19.03.26.1s.1.15.1.26v.59c0,.1-.03.19-.1.25s-.15.09-.26.09h-.59c-.1,0-.19-.03-.25-.09Zm.17-2.23c-.06-.06-.09-.15-.09-.25v-8.01c0-.1.03-.19.09-.25.06-.06.15-.09.25-.09h.27c.1,0,.19.03.25.09.06.06.09.15.09.25v8.01c0,.1-.03.19-.09.25-.06.06-.15.09-.25.09h-.27c-.1,0-.19-.03-.25-.09Z" fill="#435765"/></g><rect x="31.85" y="207.22" width="165.42" height="41.92" rx="20.96" ry="20.96" fill="#00aa7b"/><g><path d="m53.13,232.73c-.93-.92-1.39-2.3-1.39-4.16v-8.02c0-.14.04-.26.13-.35.09-.09.19-.13.33-.13h1.01c.14,0,.26.04.35.13.09.09.13.2.13.35v8.06c0,1.26.3,2.21.89,2.85.59.63,1.43.95,2.51.95s1.92-.32,2.51-.95c.59-.63.89-1.58.89-2.85v-8.06c0-.14.04-.26.13-.35.09-.09.19-.13.33-.13h1.03c.13,0,.24.05.33.14.09.09.13.2.13.34v8.02c0,1.86-.46,3.24-1.39,4.16s-2.24,1.37-3.94,1.37-3.01-.46-3.94-1.37Z" fill="#fff"/><path d="m65.6,237.53c-.09-.09-.13-.2-.13-.33v-13.12c0-.13.04-.24.13-.33.09-.09.19-.13.33-.13h.91c.13,0,.24.04.33.13.09.09.13.19.13.33v.87c.74-1.01,1.82-1.52,3.24-1.52s2.42.43,3.11,1.3c.69.87,1.06,1.99,1.12,3.36.01.15.02.37.02.67s0,.53-.02.67c-.05,1.36-.43,2.47-1.13,3.35-.7.88-1.73,1.31-3.1,1.31s-2.44-.49-3.2-1.48v4.58c0,.13-.04.24-.12.33-.08.08-.19.13-.32.13h-.97c-.13,0-.24-.04-.33-.13Zm6.56-5.9c.43-.58.66-1.34.7-2.29.01-.13.02-.32.02-.57,0-2.49-.92-3.74-2.77-3.74-.91,0-1.59.3-2.05.9s-.7,1.31-.74,2.14l-.02.75.02.77c.03.78.28,1.46.75,2.04.47.58,1.15.87,2.04.87.94,0,1.62-.29,2.05-.87Z" fill="#fff"/><path d="m78.83,237.71c-.66-.36-1.13-.77-1.4-1.24s-.43-.88-.45-1.25c-.01-.13.03-.24.13-.34.1-.09.21-.14.33-.14h.95c.12,0,.22.03.3.09.08.06.15.17.2.33.16.42.42.79.78,1.1.36.31.93.46,1.69.46.98,0,1.69-.21,2.15-.62.46-.42.69-1.15.69-2.2v-1.34c-.34.43-.78.78-1.3,1.04s-1.15.39-1.88.39c-1.4,0-2.44-.44-3.13-1.33-.69-.89-1.06-2.02-1.1-3.39l-.02-.55.02-.53c.04-1.36.41-2.49,1.11-3.39.7-.9,1.74-1.35,3.12-1.35s2.46.51,3.24,1.52v-.85c0-.13.04-.24.13-.34.09-.09.19-.14.33-.14h.91c.13,0,.24.05.34.14s.14.2.14.34v9.58c0,3.04-1.55,4.57-4.64,4.57-1.08,0-1.95-.18-2.61-.54Zm4.6-6.2c.46-.59.71-1.3.75-2.11.01-.12.02-.35.02-.69s0-.55-.02-.67c-.04-.82-.29-1.52-.74-2.11s-1.14-.89-2.05-.89-1.61.29-2.04.87c-.42.58-.65,1.34-.69,2.29l-.02.51.02.53c.04.94.27,1.7.69,2.28.42.59,1.1.88,2.04.88s1.57-.3,2.04-.89Z" fill="#fff"/><path d="m89.16,233.78c-.09-.08-.13-.19-.13-.33v-9.35c0-.13.04-.24.13-.34.09-.09.19-.14.33-.14h.91c.13,0,.24.05.34.14s.14.2.14.34v.87c.54-.9,1.46-1.34,2.77-1.34h.77c.13,0,.24.04.33.13.09.09.13.19.13.33v.81c0,.13-.04.24-.13.32-.09.08-.19.12-.33.12h-1.19c-.71,0-1.27.21-1.68.62-.41.42-.61.98-.61,1.69v5.81c0,.13-.05.24-.14.33-.09.09-.2.13-.34.13h-.97c-.13,0-.24-.04-.33-.13Z" fill="#fff"/><path d="m97.45,233.71c-.55-.26-.99-.62-1.31-1.08-.32-.46-.48-.96-.48-1.51,0-.87.36-1.58,1.08-2.14.72-.56,1.69-.93,2.92-1.1l2.94-.42v-.57c0-1.34-.77-2.02-2.31-2.02-.58,0-1.05.12-1.42.37-.37.24-.65.53-.83.86-.04.12-.09.2-.15.26-.06.05-.14.08-.25.08h-.85c-.12,0-.22-.04-.31-.13-.09-.09-.13-.19-.13-.31.01-.32.16-.67.44-1.08.28-.4.72-.75,1.31-1.05.59-.3,1.32-.44,2.19-.44,1.48,0,2.54.35,3.18,1.04.65.69.97,1.55.97,2.58v6.4c0,.13-.04.24-.13.33-.09.09-.19.13-.33.13h-.91c-.13,0-.24-.04-.33-.13-.09-.08-.13-.19-.13-.33v-.85c-.29.42-.71.78-1.27,1.07-.55.29-1.26.43-2.11.43-.65,0-1.25-.13-1.8-.39Zm4.32-1.93c.55-.56.82-1.37.82-2.42v-.55l-2.29.34c-.94.13-1.64.35-2.11.66-.47.31-.71.7-.71,1.18,0,.53.22.93.65,1.21.44.28.95.43,1.54.43.86,0,1.56-.28,2.1-.84Z" fill="#fff"/><path d="m107.94,232.76c-.7-.9-1.07-2.03-1.11-3.4l-.02-.59.02-.59c.04-1.36.41-2.49,1.11-3.39.7-.9,1.73-1.35,3.1-1.35s2.42.48,3.2,1.44v-4.54c0-.13.04-.24.13-.33.09-.09.19-.13.33-.13h.95c.13,0,.24.04.33.13.09.09.13.19.13.33v13.12c0,.13-.04.24-.13.33-.09.09-.19.13-.33.13h-.89c-.13,0-.24-.04-.33-.13-.09-.08-.13-.19-.13-.33v-.83c-.76.99-1.85,1.48-3.26,1.48s-2.4-.45-3.1-1.34Zm5.56-1.16c.45-.6.7-1.31.74-2.14.01-.14.02-.39.02-.75s0-.62-.02-.77c-.03-.78-.28-1.46-.75-2.04-.47-.58-1.15-.87-2.04-.87-.94,0-1.62.29-2.05.87-.43.58-.66,1.34-.7,2.29l-.02.57c0,2.49.92,3.74,2.77,3.74.91,0,1.59-.3,2.05-.9Z" fill="#fff"/><path d="m119.91,232.85c-.81-.84-1.25-1.98-1.33-3.43l-.02-.67.02-.65c.09-1.42.54-2.56,1.35-3.4.81-.84,1.88-1.26,3.21-1.26,1.46,0,2.6.46,3.4,1.39.8.93,1.21,2.18,1.21,3.76v.34c0,.13-.04.24-.13.33-.09.09-.19.13-.33.13h-6.84v.18c.04.86.3,1.58.78,2.18.48.6,1.12.9,1.91.9.61,0,1.1-.12,1.49-.37.39-.24.67-.5.86-.76.12-.16.21-.25.27-.29.06-.03.17-.05.33-.05h.97c.12,0,.22.03.3.1.08.07.12.16.12.28,0,.29-.18.64-.54,1.05-.36.41-.87.76-1.52,1.06-.65.3-1.4.44-2.24.44-1.36,0-2.44-.42-3.25-1.25Zm5.96-4.83v-.06c0-.91-.25-1.65-.74-2.22-.49-.57-1.16-.86-1.99-.86s-1.49.29-1.97.86-.72,1.31-.72,2.22v.06h5.42Z" fill="#fff"/><path d="m135.34,233.78c-.09-.08-.13-.19-.13-.33v-12.91c0-.14.04-.26.13-.35.09-.09.19-.13.33-.13h.91c.24,0,.4.09.49.28l6.56,10.08v-9.88c0-.14.04-.26.13-.35.09-.09.19-.13.33-.13h.95c.15,0,.26.04.35.13.09.09.13.2.13.35v12.89c0,.13-.04.24-.13.34-.09.09-.19.14-.33.14h-.95c-.2,0-.36-.09-.47-.28l-6.54-9.98v9.8c0,.13-.05.24-.14.33-.09.09-.2.13-.34.13h-.95c-.13,0-.24-.04-.33-.13Z" fill="#fff"/><path d="m149.54,232.88c-.8-.82-1.22-1.9-1.27-3.26l-.02-.85.02-.85c.05-1.34.48-2.43,1.28-3.25.8-.82,1.92-1.24,3.36-1.24s2.56.41,3.36,1.24,1.23,1.91,1.28,3.25c.01.15.02.43.02.85s0,.71-.02.85c-.05,1.36-.48,2.44-1.27,3.26-.8.82-1.92,1.22-3.37,1.22s-2.57-.41-3.37-1.22Zm5.34-1.09c.48-.53.74-1.29.78-2.27.01-.13.02-.38.02-.75s0-.62-.02-.75c-.04-.99-.3-1.75-.78-2.27s-1.14-.79-1.97-.79-1.49.26-1.98.79c-.49.53-.74,1.28-.77,2.27l-.02.75.02.75c.03.99.28,1.75.77,2.27.49.53,1.15.79,1.98.79s1.49-.26,1.97-.79Z" fill="#fff"/><path d="m162.1,233.79c-.09-.08-.17-.2-.24-.38l-2.81-9.17-.04-.2c0-.12.04-.22.13-.3.09-.08.18-.12.29-.12h.87c.13,0,.24.04.33.11.09.07.14.15.17.23l2.19,7.45,2.35-7.37c.03-.11.09-.2.18-.29.09-.09.22-.13.38-.13h.67c.16,0,.28.04.38.13.09.09.15.18.18.29l2.35,7.37,2.19-7.45c.01-.07.06-.14.15-.22s.19-.12.33-.12h.89c.11,0,.2.04.28.12.08.08.12.18.12.3l-.04.2-2.79,9.17c-.07.17-.15.3-.24.38s-.23.12-.42.12h-.77c-.36,0-.57-.17-.65-.49l-2.29-7.08-2.29,7.08c-.11.33-.33.49-.67.49h-.77c-.17,0-.3-.04-.4-.12Z" fill="#fff"/><path d="m175.6,233.78c-.08-.08-.13-.19-.13-.33v-1.25c0-.13.04-.24.13-.34.09-.09.19-.14.33-.14h1.27c.13,0,.24.05.33.14.08.09.13.21.13.34v1.25c0,.13-.04.24-.13.33s-.2.13-.33.13h-1.27c-.13,0-.24-.04-.33-.13Zm.18-3.28c-.09-.09-.13-.19-.13-.33v-9.64c0-.13.04-.24.13-.33.08-.09.19-.13.33-.13h.93c.13,0,.24.04.33.13.08.09.13.19.13.33v9.64c0,.13-.04.24-.13.33-.09.09-.2.13-.33.13h-.93c-.13,0-.24-.04-.33-.13Z" fill="#fff"/></g><g><g><g><path d="m57.75,115.62c-.72-.75-1.07-1.89-1.07-3.42v-6.56c0-.11.03-.2.1-.27s.15-.11.26-.11h.29c.12,0,.21.03.27.1s.1.16.1.28v6.61c0,1.19.28,2.07.82,2.65s1.33.87,2.33.87,1.76-.29,2.31-.87.82-1.47.82-2.65v-6.61c0-.12.04-.21.11-.28.07-.06.16-.1.27-.1h.29c.11,0,.19.04.26.11s.1.16.1.27v6.56c0,1.54-.36,2.68-1.07,3.43-.71.74-1.74,1.12-3.09,1.12s-2.38-.37-3.1-1.12Z" fill="#435765"/><path d="m67.83,116.49c-.06-.06-.1-.15-.1-.26v-7.7c0-.11.03-.19.1-.26s.15-.1.26-.1h.28c.11,0,.19.03.26.1s.1.15.1.26v.76c.32-.42.69-.74,1.11-.95.41-.22.95-.32,1.61-.32,1.06,0,1.87.34,2.44,1.01.57.67.86,1.54.86,2.61v4.59c0,.11-.03.19-.1.26s-.15.1-.26.1h-.27c-.11,0-.19-.03-.26-.1s-.1-.15-.1-.26v-4.51c0-.87-.21-1.55-.64-2.04-.43-.49-1.04-.73-1.84-.73s-1.4.25-1.86.74c-.46.49-.7,1.17-.7,2.03v4.51c0,.11-.03.19-.1.26s-.15.1-.26.1h-.28c-.11,0-.19-.03-.26-.1Z" fill="#435765"/><path d="m77.39,116.49c-.06-.06-.1-.15-.1-.26v-10.77c0-.11.03-.19.1-.26s.15-.1.26-.1h.27c.11,0,.19.03.26.1s.1.15.1.26v10.77c0,.11-.03.19-.1.26s-.15.1-.26.1h-.27c-.11,0-.19-.03-.26-.1Z" fill="#435765"/><path d="m81.5,115.72c-.62-.68-.95-1.57-.98-2.66l-.02-.68.02-.68c.03-1.09.36-1.98.98-2.66s1.49-1.03,2.61-1.03,1.99.34,2.61,1.03.95,1.57.98,2.66c.01.11.02.33.02.68s0,.57-.02.68c-.03,1.09-.36,1.98-.98,2.66s-1.49,1.03-2.61,1.03-1.99-.34-2.61-1.03Zm4.46-.65c.47-.49.72-1.19.75-2.09.01-.11.02-.31.02-.6s0-.49-.02-.6c-.03-.91-.28-1.6-.75-2.09-.47-.49-1.09-.74-1.85-.74s-1.38.25-1.85.74c-.47.49-.72,1.19-.75,2.09l-.02.6.02.6c.03.91.28,1.6.75,2.09.47.49,1.09.74,1.85.74s1.38-.25,1.85-.74Z" fill="#435765"/><path d="m90.52,115.77c-.61-.65-.94-1.57-.97-2.74l-.02-.65.02-.65c.03-1.18.36-2.09.97-2.74s1.48-.98,2.6-.98c.71,0,1.32.13,1.82.38.5.25.88.58,1.12.97s.38.8.4,1.22c.01.1-.02.18-.1.25-.08.07-.16.11-.26.11h-.23c-.11,0-.19-.02-.23-.07-.05-.05-.1-.14-.15-.27-.22-.59-.52-1.02-.91-1.27s-.88-.38-1.47-.38c-.78,0-1.39.23-1.85.7s-.7,1.19-.74,2.16l-.02.57.02.57c.03.97.28,1.69.74,2.16.46.47,1.08.7,1.85.7.59,0,1.08-.13,1.47-.38s.69-.68.91-1.27c.05-.13.1-.22.15-.27.05-.05.13-.07.23-.07h.23c.1,0,.18.04.26.11.08.07.11.15.1.25-.02.42-.16.83-.4,1.22s-.62.72-1.12.97c-.5.25-1.11.38-1.82.38-1.12,0-1.99-.33-2.6-.98Z" fill="#435765"/><path d="m98.72,116.49c-.06-.06-.1-.15-.1-.26v-10.77c0-.11.03-.19.1-.26s.15-.1.26-.1h.27c.11,0,.19.03.26.1s.1.15.1.26v5.72l3.61-2.73c.17-.13.29-.21.36-.23s.17-.04.32-.04h.31c.1,0,.17.03.23.09s.09.14.09.23c0,.12-.07.23-.21.32l-4.09,3.1,4.5,4.01c.14.13.21.24.21.32,0,.1-.03.18-.09.23s-.14.09-.23.09h-.26c-.16,0-.28-.01-.36-.04-.08-.03-.18-.1-.32-.23l-4.06-3.61v3.53c0,.11-.03.19-.1.26s-.15.1-.26.1h-.27c-.11,0-.19-.03-.26-.1Z" fill="#435765"/><path d="m109.19,116.49c-.06-.06-.1-.14-.1-.23l.03-.18,4.09-10.49c.09-.22.24-.32.47-.32h.55c.23,0,.38.11.47.32l4.09,10.49.03.18c0,.09-.03.16-.1.23s-.14.1-.23.1h-.32c-.1,0-.18-.03-.23-.08-.06-.05-.1-.11-.12-.16l-1-2.59h-5.72l-1,2.59c-.02.05-.06.11-.12.16-.06.05-.14.08-.23.08h-.32c-.09,0-.16-.03-.23-.1Zm7.24-3.7l-2.47-6.37-2.47,6.37h4.95Z" fill="#435765"/><path d="m120.64,116.49c-.06-.06-.1-.15-.1-.26v-10.77c0-.11.03-.19.1-.26s.15-.1.26-.1h.27c.11,0,.19.03.26.1s.1.15.1.26v10.77c0,.11-.03.19-.1.26s-.15.1-.26.1h-.27c-.11,0-.19-.03-.26-.1Z" fill="#435765"/><path d="m124.28,116.49c-.06-.06-.1-.15-.1-.26v-10.77c0-.11.03-.19.1-.26s.15-.1.26-.1h.27c.11,0,.19.03.26.1s.1.15.1.26v10.77c0,.11-.03.19-.1.26s-.15.1-.26.1h-.27c-.11,0-.19-.03-.26-.1Z" fill="#435765"/><path d="m132.28,116.49c-.06-.06-.1-.15-.1-.26v-10.59c0-.11.03-.2.1-.27s.15-.11.26-.11h6.24c.12,0,.21.03.28.1s.1.16.1.28v.24c0,.11-.04.19-.11.26s-.16.1-.27.1h-5.58v4.35h5.26c.12,0,.21.03.28.1s.1.16.1.28v.24c0,.11-.04.19-.11.26s-.16.1-.27.1h-5.26v4.67c0,.11-.04.19-.11.26s-.16.1-.27.1h-.29c-.11,0-.19-.03-.26-.1Z" fill="#435765"/><path d="m141.65,115.74c-.62-.67-.98-1.58-1.07-2.71l-.02-.65.02-.65c.09-1.12.44-2.02,1.06-2.7.62-.68,1.45-1.02,2.48-1.02,1.12,0,2,.37,2.63,1.12s.95,1.76.95,3.06v.24c0,.11-.04.19-.11.26s-.16.1-.27.1h-5.76v.16c.02.51.14.98.35,1.41s.5.79.88,1.05c.38.26.82.4,1.33.4.59,0,1.07-.12,1.45-.35.37-.23.64-.47.8-.7.1-.13.17-.21.22-.24.05-.03.14-.05.27-.05h.26c.1,0,.18.03.24.08.06.05.1.12.1.21,0,.23-.14.5-.43.82-.29.32-.68.59-1.19.82-.51.23-1.08.35-1.71.35-1.02,0-1.85-.34-2.47-1.01Zm5.06-3.86v-.06c0-.83-.23-1.51-.7-2.05-.47-.54-1.1-.81-1.88-.81s-1.41.27-1.87.81-.69,1.22-.69,2.05v.06h5.14Z" fill="#435765"/><path d="m150.65,116.43c-.44-.22-.8-.51-1.06-.87-.26-.37-.4-.77-.4-1.21,0-.71.29-1.29.86-1.75s1.36-.74,2.34-.87l2.55-.36v-.57c0-.59-.18-1.05-.54-1.37s-.91-.48-1.66-.48c-.55,0-1,.11-1.35.32s-.57.47-.67.78c-.04.13-.09.22-.15.27-.06.05-.14.07-.23.07h-.23c-.1,0-.18-.03-.25-.11-.07-.07-.11-.15-.11-.25,0-.24.11-.51.32-.83s.55-.6,1-.83c.45-.24,1.01-.36,1.67-.36,1.15,0,1.97.27,2.46.82s.73,1.22.73,2.01v5.38c0,.11-.03.19-.1.26s-.15.1-.26.1h-.28c-.11,0-.19-.03-.26-.1s-.1-.15-.1-.26v-.76c-.24.36-.58.66-1.04.91-.46.25-1.07.37-1.82.37-.52,0-1-.11-1.44-.32Zm3.54-1.39c.51-.52.76-1.26.76-2.23v-.55l-2.09.29c-.88.12-1.55.32-2.01.61s-.68.66-.68,1.1c0,.5.21.88.62,1.15.41.27.9.4,1.45.4.79,0,1.43-.26,1.94-.78Z" fill="#435765"/><path d="m159.55,115.87c-.33-.48-.5-1.14-.5-1.98v-4.77h-1.26c-.11,0-.2-.03-.26-.1-.07-.06-.1-.15-.1-.26v-.23c0-.11.03-.19.1-.26.06-.06.15-.1.26-.1h1.26v-2.72c0-.11.03-.19.1-.26s.15-.1.26-.1h.28c.11,0,.19.03.26.1s.1.15.1.26v2.72h2c.11,0,.19.03.26.1s.1.15.1.26v.23c0,.11-.03.19-.1.26s-.15.1-.26.1h-2v4.71c0,.6.1,1.06.3,1.37.2.31.53.46,1,.46h.87c.11,0,.19.03.26.1s.1.15.1.26v.23c0,.11-.03.19-.1.26s-.15.1-.26.1h-.95c-.8,0-1.36-.24-1.7-.72Z" fill="#435765"/><path d="m164.96,115.75c-.55-.67-.82-1.54-.82-2.62v-4.59c0-.11.03-.19.1-.26s.15-.1.26-.1h.28c.11,0,.19.03.26.1s.1.15.1.26v4.51c0,1.84.8,2.76,2.41,2.76.78,0,1.39-.25,1.85-.74s.69-1.17.69-2.03v-4.51c0-.11.03-.19.1-.26s.15-.1.26-.1h.28c.11,0,.19.03.26.1s.1.15.1.26v7.7c0,.11-.03.19-.1.26s-.15.1-.26.1h-.28c-.11,0-.19-.03-.26-.1s-.1-.15-.1-.26v-.76c-.32.42-.69.74-1.11.95-.42.22-.95.32-1.59.32-1.06,0-1.86-.33-2.41-1Z" fill="#435765"/><path d="m173.78,116.49c-.06-.06-.1-.15-.1-.26v-7.68c0-.11.03-.2.1-.27s.15-.11.26-.11h.26c.11,0,.2.04.27.11.07.07.1.16.1.27v.74c.39-.74,1.12-1.12,2.2-1.12h.6c.11,0,.19.03.26.1s.1.15.1.26v.23c0,.11-.03.19-.1.26s-.15.1-.26.1h-.7c-.65,0-1.16.19-1.54.57-.38.38-.57.89-.57,1.54v5.01c0,.11-.04.19-.1.26-.07.06-.16.1-.27.1h-.26c-.11,0-.19-.03-.26-.1Z" fill="#435765"/><path d="m179.76,115.74c-.63-.67-.98-1.58-1.07-2.71l-.02-.65.02-.65c.09-1.12.44-2.02,1.06-2.7.62-.68,1.45-1.02,2.48-1.02,1.12,0,2,.37,2.63,1.12s.95,1.76.95,3.06v.24c0,.11-.04.19-.11.26s-.16.1-.27.1h-5.76v.16c.02.51.14.98.35,1.41s.5.79.88,1.05c.38.26.82.4,1.33.4.59,0,1.08-.12,1.45-.35.37-.23.64-.47.8-.7.1-.13.17-.21.22-.24.05-.03.14-.05.27-.05h.26c.1,0,.18.03.24.08.06.05.1.12.1.21,0,.23-.14.5-.43.82-.29.32-.68.59-1.19.82-.51.23-1.08.35-1.71.35-1.02,0-1.85-.34-2.47-1.01Zm5.06-3.86v-.06c0-.83-.23-1.51-.7-2.05-.47-.54-1.1-.81-1.88-.81s-1.41.27-1.87.81-.69,1.22-.69,2.05v.06h5.14Z" fill="#435765"/><path d="m188.84,116.39c-.48-.24-.84-.51-1.08-.81-.24-.3-.36-.54-.36-.73,0-.1.04-.18.11-.23.08-.06.16-.09.24-.09h.24c.08,0,.14.01.19.04.05.03.1.08.17.17.24.33.53.6.86.78.34.19.81.28,1.4.28.67,0,1.21-.13,1.62-.38s.62-.62.62-1.09c0-.29-.08-.53-.25-.71-.17-.18-.44-.34-.81-.48-.37-.13-.93-.29-1.66-.46-.96-.22-1.61-.51-1.96-.89-.35-.38-.53-.86-.53-1.44,0-.4.11-.78.33-1.13.22-.36.55-.65.99-.87.44-.23.96-.34,1.58-.34.65,0,1.19.11,1.64.33.45.22.78.48,1,.77.22.29.33.53.33.71,0,.1-.04.18-.1.23-.07.06-.15.09-.25.09h-.24c-.15,0-.27-.07-.36-.21-.22-.32-.46-.57-.74-.74s-.7-.25-1.28-.25c-.63,0-1.1.13-1.42.39s-.49.6-.49,1.02c0,.26.06.47.19.65.13.17.37.33.73.48.36.15.87.29,1.55.45,1,.23,1.71.53,2.12.91.41.38.61.88.61,1.5,0,.44-.12.85-.37,1.21-.25.37-.61.66-1.1.87-.48.22-1.07.32-1.75.32s-1.29-.12-1.77-.36Z" fill="#435765"/></g><path d="m44.01,106.41l.95.95-8.09,8.09-3.76-3.76.95-.95,2.81,2.81,7.14-7.14Z" fill="#435765"/></g><g><path d="m44.01,136.49l.95.95-8.09,8.09-3.76-3.76.95-.95,2.81,2.81,7.14-7.14Z" fill="#435765"/><g><path d="m56.87,145.12c-.06-.06-.1-.15-.1-.26v-10.59c0-.11.03-.2.1-.27s.15-.11.26-.11h3.93c1.15,0,2.06.29,2.72.86.66.58.99,1.4.99,2.48s-.33,1.91-.99,2.48c-.66.58-1.57.87-2.72.87h-3.27v4.27c0,.11-.04.19-.11.26s-.16.1-.27.1h-.29c-.11,0-.19-.03-.26-.1Zm4.11-5.5c.93,0,1.62-.2,2.09-.61.46-.4.7-.99.7-1.77s-.23-1.37-.7-1.77c-.46-.4-1.16-.61-2.09-.61h-3.19v4.75h3.19Z" fill="#435765"/><path d="m66.81,145.12c-.06-.06-.1-.15-.1-.26v-7.68c0-.11.03-.2.1-.27s.15-.11.26-.11h.26c.11,0,.2.04.27.11s.11.16.11.27v.74c.39-.74,1.12-1.12,2.2-1.12h.6c.11,0,.19.03.26.1s.1.15.1.26v.23c0,.11-.03.19-.1.26s-.15.1-.26.1h-.7c-.65,0-1.16.19-1.54.57-.38.38-.57.89-.57,1.54v5.01c0,.11-.04.19-.11.26s-.16.1-.27.1h-.26c-.11,0-.19-.03-.26-.1Z" fill="#435765"/><path d="m72.26,134.98c-.06-.06-.1-.15-.1-.26v-.61c0-.11.03-.2.1-.27s.15-.11.26-.11h.61c.11,0,.2.04.27.11s.11.16.11.27v.61c0,.11-.04.19-.11.26s-.16.1-.27.1h-.61c-.11,0-.19-.03-.26-.1Zm.18,10.14c-.06-.06-.1-.15-.1-.26v-7.7c0-.11.03-.19.1-.26s.15-.1.26-.1h.28c.11,0,.19.03.26.1s.1.15.1.26v7.7c0,.11-.03.19-.1.26s-.15.1-.26.1h-.28c-.11,0-.19-.03-.26-.1Z" fill="#435765"/><path d="m76.54,144.35c-.62-.68-.95-1.57-.98-2.66l-.02-.68.02-.68c.03-1.09.36-1.98.98-2.66s1.49-1.03,2.61-1.03,1.99.34,2.61,1.03.95,1.57.98,2.66c.01.11.02.33.02.68s0,.57-.02.68c-.03,1.09-.36,1.98-.98,2.66s-1.49,1.03-2.61,1.03-1.99-.34-2.61-1.03Zm4.46-.65c.47-.49.72-1.19.75-2.09.01-.11.02-.31.02-.6s0-.49-.02-.6c-.03-.91-.28-1.6-.75-2.09-.47-.49-1.09-.74-1.85-.74s-1.38.25-1.85.74c-.47.49-.72,1.19-.75,2.09l-.02.6.02.6c.03.91.28,1.6.75,2.09.47.49,1.09.74,1.85.74s1.38-.25,1.85-.74Z" fill="#435765"/><path d="m85.07,145.12c-.06-.06-.1-.15-.1-.26v-7.68c0-.11.03-.2.1-.27s.15-.11.26-.11h.26c.11,0,.2.04.27.11s.11.16.11.27v.74c.39-.74,1.12-1.12,2.2-1.12h.6c.11,0,.19.03.26.1s.1.15.1.26v.23c0,.11-.03.19-.1.26s-.15.1-.26.1h-.7c-.65,0-1.16.19-1.54.57-.38.38-.57.89-.57,1.54v5.01c0,.11-.04.19-.11.26s-.16.1-.27.1h-.26c-.11,0-.19-.03-.26-.1Z" fill="#435765"/><path d="m90.52,134.98c-.06-.06-.1-.15-.1-.26v-.61c0-.11.03-.2.1-.27s.15-.11.26-.11h.61c.11,0,.2.04.27.11s.11.16.11.27v.61c0,.11-.04.19-.11.26s-.16.1-.27.1h-.61c-.11,0-.19-.03-.26-.1Zm.18,10.14c-.06-.06-.1-.15-.1-.26v-7.7c0-.11.03-.19.1-.26s.15-.1.26-.1h.28c.11,0,.19.03.26.1s.1.15.1.26v7.7c0,.11-.03.19-.1.26s-.15.1-.26.1h-.28c-.11,0-.19-.03-.26-.1Z" fill="#435765"/><path d="m95.34,144.5c-.33-.48-.5-1.14-.5-1.98v-4.77h-1.26c-.11,0-.19-.03-.26-.1s-.1-.15-.1-.26v-.23c0-.11.03-.19.1-.26s.15-.1.26-.1h1.26v-2.72c0-.11.03-.19.1-.26s.15-.1.26-.1h.27c.11,0,.19.03.26.1s.1.15.1.26v2.72h2.01c.11,0,.19.03.26.1s.1.15.1.26v.23c0,.11-.03.19-.1.26s-.15.1-.26.1h-2.01v4.71c0,.6.1,1.06.3,1.37.2.31.53.46.99.46h.87c.11,0,.19.03.26.1s.1.15.1.26v.23c0,.11-.03.19-.1.26s-.15.1-.26.1h-.95c-.8,0-1.36-.24-1.7-.72Z" fill="#435765"/><path d="m101.21,148.19c-.06-.06-.1-.14-.1-.23,0-.05.03-.16.1-.32l1.25-2.91-3.09-7.28c-.06-.16-.1-.27-.1-.32,0-.09.03-.16.1-.23s.14-.1.23-.1h.34c.17,0,.3.08.37.24l2.72,6.4,2.78-6.4c.09-.16.21-.24.37-.24h.32c.09,0,.16.03.23.1s.1.14.1.23c0,.05-.03.16-.1.32l-4.59,10.59c-.08.16-.2.24-.37.24h-.32c-.09,0-.16-.03-.23-.1Z" fill="#435765"/><path d="m113.54,144.25c-.72-.75-1.07-1.89-1.07-3.42v-6.56c0-.11.03-.2.1-.27s.15-.11.26-.11h.29c.12,0,.21.03.27.1s.1.16.1.28v6.61c0,1.19.28,2.07.82,2.65s1.33.87,2.33.87,1.76-.29,2.31-.87.82-1.47.82-2.65v-6.61c0-.12.04-.21.11-.28.07-.06.16-.1.27-.1h.29c.11,0,.19.04.26.11s.1.16.1.27v6.56c0,1.54-.36,2.68-1.07,3.43-.71.74-1.74,1.12-3.09,1.12s-2.38-.37-3.1-1.12Z" fill="#435765"/><path d="m123.63,148.19c-.06-.06-.1-.15-.1-.26v-10.77c0-.11.03-.19.1-.26s.15-.1.26-.1h.27c.11,0,.19.03.26.1s.1.15.1.26v.76c.63-.85,1.53-1.28,2.72-1.28s2.02.37,2.58,1.11.85,1.65.88,2.72c.01.11.02.29.02.53s0,.43-.02.53c-.03,1.08-.33,1.99-.88,2.72-.56.74-1.41,1.11-2.58,1.11s-2.08-.43-2.72-1.28v3.83c0,.11-.03.19-.1.26s-.15.1-.26.1h-.27c-.11,0-.19-.03-.26-.1Zm5.43-4.58c.4-.56.62-1.27.65-2.14.01-.11.02-.26.02-.45,0-1-.19-1.82-.58-2.47s-1.06-.96-2.01-.96c-.85,0-1.49.28-1.92.85-.43.57-.66,1.23-.7,2l-.02.63.02.63c.01.46.11.9.31,1.32.19.42.49.76.87,1.03.39.27.87.4,1.44.4.87,0,1.51-.28,1.92-.83Z" fill="#435765"/><path d="m133.38,144.24c-.56-.76-.85-1.68-.88-2.77l-.02-.45.02-.45c.03-1.09.33-2.01.88-2.77.56-.76,1.41-1.14,2.58-1.14s2.08.43,2.72,1.28v-3.83c0-.11.03-.19.1-.26s.15-.1.26-.1h.27c.11,0,.19.03.26.1s.1.15.1.26v10.77c0,.11-.03.19-.1.26s-.15.1-.26.1h-.27c-.11,0-.19-.03-.26-.1s-.1-.15-.1-.26v-.76c-.63.85-1.53,1.28-2.72,1.28s-2.02-.38-2.58-1.14Zm4.6-.65c.43-.57.66-1.23.7-2,.01-.11.02-.32.02-.63s0-.52-.02-.63c-.01-.46-.11-.9-.31-1.32-.19-.41-.49-.76-.87-1.03-.39-.27-.87-.4-1.44-.4-.87,0-1.51.28-1.92.83-.4.56-.62,1.27-.65,2.14l-.02.45c0,1,.19,1.82.58,2.47s1.06.96,2.01.96c.85,0,1.49-.28,1.92-.85Z" fill="#435765"/><path d="m143.12,145.05c-.44-.22-.8-.51-1.06-.87-.26-.37-.4-.77-.4-1.21,0-.71.29-1.29.86-1.75s1.36-.74,2.34-.87l2.55-.36v-.57c0-.59-.18-1.05-.54-1.37s-.91-.48-1.66-.48c-.55,0-1,.11-1.35.32s-.57.47-.67.78c-.04.13-.09.22-.15.27-.06.05-.14.07-.23.07h-.23c-.1,0-.18-.03-.25-.11-.07-.07-.11-.15-.11-.25,0-.24.11-.51.32-.83s.55-.6,1-.83c.45-.24,1.01-.36,1.67-.36,1.15,0,1.97.27,2.46.82s.73,1.22.73,2.01v5.38c0,.11-.03.19-.1.26s-.15.1-.26.1h-.28c-.11,0-.19-.03-.26-.1s-.1-.15-.1-.26v-.76c-.24.36-.58.66-1.04.91-.46.25-1.07.37-1.82.37-.52,0-1-.11-1.44-.32Zm3.54-1.39c.51-.52.76-1.26.76-2.23v-.55l-2.09.29c-.88.12-1.55.32-2.01.61s-.68.66-.68,1.1c0,.5.21.88.62,1.15.41.27.9.4,1.45.4.79,0,1.43-.26,1.94-.78Z" fill="#435765"/><path d="m152.01,144.5c-.33-.48-.5-1.14-.5-1.98v-4.77h-1.26c-.11,0-.19-.03-.26-.1s-.1-.15-.1-.26v-.23c0-.11.03-.19.1-.26s.15-.1.26-.1h1.26v-2.72c0-.11.03-.19.1-.26s.15-.1.26-.1h.27c.11,0,.19.03.26.1s.1.15.1.26v2.72h2.01c.11,0,.19.03.26.1s.1.15.1.26v.23c0,.11-.03.19-.1.26s-.15.1-.26.1h-2.01v4.71c0,.6.1,1.06.3,1.37.2.31.53.46.99.46h.87c.11,0,.19.03.26.1s.1.15.1.26v.23c0,.11-.03.19-.1.26s-.15.1-.26.1h-.95c-.8,0-1.36-.24-1.7-.72Z" fill="#435765"/><path d="m157.33,144.37c-.62-.67-.98-1.58-1.07-2.71l-.02-.65.02-.65c.09-1.12.44-2.02,1.06-2.7.62-.68,1.45-1.02,2.48-1.02,1.12,0,2,.37,2.63,1.12.63.74.95,1.76.95,3.06v.24c0,.11-.04.19-.11.26s-.16.1-.27.1h-5.76v.16c.02.51.14.98.35,1.41s.5.79.88,1.05c.38.26.82.4,1.32.4.59,0,1.08-.12,1.45-.35.37-.23.64-.47.8-.7.1-.13.17-.21.22-.24s.14-.05.27-.05h.26c.1,0,.18.03.24.08.07.05.1.12.1.21,0,.23-.14.5-.43.82-.29.32-.68.59-1.19.82-.51.23-1.08.35-1.71.35-1.02,0-1.85-.34-2.47-1.01Zm5.06-3.86v-.06c0-.83-.23-1.51-.7-2.05-.47-.54-1.1-.81-1.89-.81s-1.41.27-1.87.81c-.46.54-.69,1.22-.69,2.05v.06h5.14Z" fill="#435765"/><path d="m166.41,145.02c-.48-.24-.84-.51-1.08-.81-.24-.3-.36-.54-.36-.73,0-.1.04-.18.11-.23.08-.06.16-.09.24-.09h.24c.08,0,.14.01.19.04.05.03.1.08.17.17.24.33.53.6.86.78.34.19.81.28,1.4.28.67,0,1.21-.13,1.62-.38s.62-.62.62-1.09c0-.29-.08-.53-.25-.71-.17-.18-.44-.34-.81-.48-.37-.13-.93-.29-1.66-.46-.96-.22-1.61-.51-1.96-.89-.35-.38-.53-.86-.53-1.44,0-.4.11-.78.33-1.13.22-.36.55-.65.99-.87.44-.23.96-.34,1.58-.34.65,0,1.19.11,1.64.33.45.22.78.48,1,.77.22.29.33.53.33.71,0,.1-.04.18-.1.23-.07.06-.15.09-.25.09h-.24c-.15,0-.27-.07-.36-.21-.22-.32-.46-.57-.74-.74s-.7-.25-1.28-.25c-.63,0-1.1.13-1.42.39s-.49.6-.49,1.02c0,.26.06.47.19.65.13.17.37.33.73.48.36.15.87.29,1.55.45,1,.23,1.71.53,2.12.91.41.38.61.88.61,1.5,0,.44-.12.85-.37,1.21-.25.37-.61.66-1.1.87-.48.22-1.07.32-1.75.32s-1.29-.12-1.77-.36Z" fill="#435765"/></g></g><g><path d="m44.01,166.58l.95.95-8.09,8.09-3.76-3.76.95-.95,2.81,2.81,7.14-7.14Z" fill="#435765"/><g><path d="m56.87,175.2c-.06-.06-.1-.15-.1-.26v-10.59c0-.11.03-.2.1-.27s.15-.11.26-.11h3.93c1.15,0,2.06.29,2.72.86.66.58.99,1.4.99,2.48s-.33,1.91-.99,2.48c-.66.58-1.57.86-2.72.86h-3.27v4.27c0,.11-.04.19-.11.26s-.16.1-.27.1h-.29c-.11,0-.19-.03-.26-.1Zm4.11-5.5c.93,0,1.62-.2,2.09-.61.46-.4.7-.99.7-1.77s-.23-1.37-.7-1.77c-.46-.4-1.16-.61-2.09-.61h-3.19v4.75h3.19Z" fill="#435765"/><path d="m66.81,175.2c-.06-.06-.1-.15-.1-.26v-7.68c0-.11.03-.2.1-.27s.15-.11.26-.11h.26c.11,0,.2.04.27.11s.11.16.11.27v.74c.39-.74,1.12-1.11,2.2-1.11h.6c.11,0,.19.03.26.1s.1.15.1.26v.23c0,.11-.03.19-.1.26s-.15.1-.26.1h-.7c-.65,0-1.16.19-1.54.57-.38.38-.57.89-.57,1.54v5.01c0,.11-.04.19-.11.26s-.16.1-.27.1h-.26c-.11,0-.19-.03-.26-.1Z" fill="#435765"/><path d="m72.8,174.45c-.62-.67-.98-1.58-1.07-2.71l-.02-.65.02-.65c.09-1.12.44-2.02,1.06-2.7.62-.68,1.45-1.02,2.48-1.02,1.12,0,2,.37,2.63,1.12.63.74.95,1.76.95,3.06v.24c0,.11-.04.19-.11.26s-.16.1-.27.1h-5.76v.16c.02.51.14.98.35,1.41s.5.79.88,1.05c.38.26.82.4,1.33.4.59,0,1.07-.12,1.45-.35.37-.23.64-.47.8-.7.1-.13.17-.21.22-.24.05-.03.14-.05.27-.05h.26c.1,0,.18.03.24.08s.1.12.1.21c0,.23-.14.5-.43.82-.29.32-.68.59-1.19.83-.51.23-1.08.35-1.71.35-1.02,0-1.85-.34-2.47-1.01Zm5.06-3.86v-.06c0-.83-.23-1.51-.7-2.05-.47-.54-1.1-.81-1.88-.81s-1.41.27-1.87.81c-.46.54-.69,1.22-.69,2.05v.06h5.14Z" fill="#435765"/><path d="m81.07,175.2c-.06-.06-.1-.15-.1-.26v-7.7c0-.11.03-.19.1-.26s.15-.1.26-.1h.28c.11,0,.19.03.26.1s.1.15.1.26v.57c.28-.36.61-.62.98-.81.37-.18.82-.28,1.33-.28,1.21,0,2.07.51,2.59,1.52.26-.46.63-.83,1.11-1.11.48-.27,1.03-.41,1.64-.41.9,0,1.62.3,2.18.91.56.61.84,1.47.84,2.59v4.71c0,.11-.03.19-.1.26s-.15.1-.26.1h-.28c-.11,0-.19-.03-.26-.1s-.1-.15-.1-.26v-4.54c0-.98-.2-1.68-.61-2.1-.4-.42-.94-.63-1.59-.63-.58,0-1.09.21-1.51.64-.43.43-.64,1.12-.64,2.09v4.54c0,.11-.03.19-.1.26s-.15.1-.26.1h-.27c-.11,0-.19-.03-.26-.1s-.1-.15-.1-.26v-4.54c0-.97-.21-1.67-.63-2.09-.42-.43-.94-.64-1.57-.64-.58,0-1.09.21-1.51.64-.43.43-.64,1.12-.64,2.08v4.56c0,.11-.03.19-.1.26s-.15.1-.26.1h-.28c-.11,0-.19-.03-.26-.1Z" fill="#435765"/><path d="m95.09,165.06c-.06-.06-.1-.15-.1-.26v-.61c0-.11.03-.2.1-.27s.15-.11.26-.11h.61c.11,0,.2.04.27.11s.11.16.11.27v.61c0,.11-.04.19-.11.26s-.16.1-.27.1h-.61c-.11,0-.19-.03-.26-.1Zm.18,10.14c-.06-.06-.1-.15-.1-.26v-7.7c0-.11.03-.19.1-.26s.15-.1.26-.1h.28c.11,0,.19.03.26.1s.1.15.1.26v7.7c0,.11-.03.19-.1.26s-.15.1-.26.1h-.28c-.11,0-.19-.03-.26-.1Z" fill="#435765"/><path d="m99.52,174.46c-.55-.67-.82-1.54-.82-2.62v-4.59c0-.11.03-.19.1-.26s.15-.1.26-.1h.27c.11,0,.19.03.26.1s.1.15.1.26v4.51c0,1.84.8,2.76,2.41,2.76.78,0,1.39-.24,1.85-.74.46-.49.69-1.17.69-2.03v-4.51c0-.11.03-.19.1-.26s.15-.1.26-.1h.27c.11,0,.19.03.26.1s.1.15.1.26v7.7c0,.11-.03.19-.1.26s-.15.1-.26.1h-.27c-.11,0-.19-.03-.26-.1s-.1-.15-.1-.26v-.76c-.32.42-.69.74-1.11.95-.41.21-.95.32-1.59.32-1.06,0-1.86-.33-2.41-1Z" fill="#435765"/><path d="m108.34,175.2c-.06-.06-.1-.15-.1-.26v-7.7c0-.11.03-.19.1-.26s.15-.1.26-.1h.28c.11,0,.19.03.26.1s.1.15.1.26v.57c.28-.36.61-.62.98-.81.37-.18.82-.28,1.33-.28,1.21,0,2.07.51,2.59,1.52.26-.46.63-.83,1.11-1.11.48-.27,1.03-.41,1.64-.41.9,0,1.62.3,2.18.91.56.61.84,1.47.84,2.59v4.71c0,.11-.03.19-.1.26s-.15.1-.26.1h-.28c-.11,0-.19-.03-.26-.1s-.1-.15-.1-.26v-4.54c0-.98-.2-1.68-.61-2.1-.4-.42-.94-.63-1.59-.63-.58,0-1.09.21-1.51.64-.43.43-.64,1.12-.64,2.09v4.54c0,.11-.03.19-.1.26s-.15.1-.26.1h-.27c-.11,0-.19-.03-.26-.1s-.1-.15-.1-.26v-4.54c0-.97-.21-1.67-.63-2.09-.42-.43-.94-.64-1.57-.64-.58,0-1.09.21-1.51.64-.43.43-.64,1.12-.64,2.08v4.56c0,.11-.03.19-.1.26s-.15.1-.26.1h-.28c-.11,0-.19-.03-.26-.1Z" fill="#435765"/><path d="m128.02,175.05c-.62-.28-1.09-.63-1.42-1.08-.33-.44-.5-.92-.53-1.42,0-.09.03-.16.1-.23s.15-.1.24-.1h.32c.19,0,.31.11.36.32.08.52.37.97.89,1.36s1.26.58,2.23.58c1.02,0,1.79-.19,2.29-.56.5-.37.75-.89.75-1.56,0-.41-.12-.75-.36-1.01-.24-.26-.6-.5-1.06-.7-.46-.2-1.16-.45-2.1-.75-.83-.27-1.48-.53-1.95-.79s-.82-.58-1.04-.95-.34-.86-.34-1.44c0-.55.15-1.04.44-1.49.3-.44.72-.79,1.29-1.04.56-.25,1.23-.38,2.01-.38s1.48.14,2.05.43,1,.65,1.29,1.08c.29.44.45.88.47,1.32,0,.09-.03.16-.09.23s-.14.1-.25.1h-.32c-.08,0-.15-.02-.23-.07s-.12-.13-.13-.25c-.06-.54-.35-.98-.86-1.33-.51-.35-1.16-.53-1.93-.53-.83,0-1.49.16-1.98.49-.49.32-.74.81-.74,1.45,0,.42.11.77.33,1.04.22.27.55.51.99.71.44.2,1.09.44,1.96.72.88.28,1.57.55,2.07.81.5.26.87.57,1.12.94s.38.84.38,1.42c0,.97-.36,1.73-1.08,2.27-.72.54-1.71.82-2.98.82-.84,0-1.57-.14-2.19-.41Z" fill="#435765"/><path d="m137.13,174.46c-.55-.67-.82-1.54-.82-2.62v-4.59c0-.11.03-.19.1-.26s.15-.1.26-.1h.27c.11,0,.19.03.26.1s.1.15.1.26v4.51c0,1.84.8,2.76,2.41,2.76.78,0,1.39-.24,1.85-.74.46-.49.69-1.17.69-2.03v-4.51c0-.11.03-.19.1-.26s.15-.1.26-.1h.27c.11,0,.19.03.26.1s.1.15.1.26v7.7c0,.11-.03.19-.1.26s-.15.1-.26.1h-.27c-.11,0-.19-.03-.26-.1s-.1-.15-.1-.26v-.76c-.32.42-.69.74-1.11.95-.41.21-.95.32-1.59.32-1.06,0-1.86-.33-2.41-1Z" fill="#435765"/><path d="m145.96,178.27c-.06-.06-.1-.15-.1-.26v-10.77c0-.11.03-.19.1-.26s.15-.1.26-.1h.27c.11,0,.19.03.26.1s.1.15.1.26v.76c.63-.85,1.53-1.28,2.72-1.28s2.02.37,2.58,1.11c.56.74.85,1.65.88,2.72.01.11.02.29.02.53s0,.43-.02.53c-.03,1.08-.33,1.99-.88,2.72-.56.74-1.41,1.11-2.58,1.11s-2.08-.43-2.72-1.28v3.83c0,.11-.03.19-.1.26s-.15.1-.26.1h-.27c-.11,0-.19-.03-.26-.1Zm5.43-4.58c.4-.56.62-1.27.65-2.14.01-.11.02-.26.02-.45,0-1-.19-1.82-.58-2.47s-1.06-.96-2.01-.96c-.85,0-1.49.28-1.92.85-.43.57-.66,1.23-.7,2l-.02.63.02.63c.01.46.11.9.31,1.32.19.42.49.76.87,1.03.39.27.87.4,1.44.4.87,0,1.51-.28,1.92-.83Z" fill="#435765"/><path d="m155.36,178.27c-.06-.06-.1-.15-.1-.26v-10.77c0-.11.03-.19.1-.26s.15-.1.26-.1h.27c.11,0,.19.03.26.1s.1.15.1.26v.76c.63-.85,1.53-1.28,2.72-1.28s2.02.37,2.58,1.11c.56.74.85,1.65.88,2.72.01.11.02.29.02.53s0,.43-.02.53c-.03,1.08-.33,1.99-.88,2.72-.55.74-1.41,1.11-2.58,1.11s-2.08-.43-2.72-1.28v3.83c0,.11-.03.19-.1.26s-.15.1-.26.1h-.27c-.11,0-.19-.03-.26-.1Zm5.42-4.58c.4-.56.62-1.27.66-2.14,0-.11.02-.26.02-.45,0-1-.19-1.82-.58-2.47s-1.06-.96-2.01-.96c-.85,0-1.49.28-1.92.85-.43.57-.66,1.23-.7,2l-.02.63.02.63c.01.46.11.9.31,1.32.19.42.49.76.87,1.03.39.27.87.4,1.44.4.87,0,1.51-.28,1.92-.83Z" fill="#435765"/><path d="m165.23,174.43c-.62-.68-.95-1.57-.98-2.66l-.02-.68.02-.68c.03-1.09.36-1.98.98-2.66.62-.69,1.49-1.03,2.61-1.03s1.99.34,2.61,1.03c.62.68.95,1.57.98,2.66.01.11.02.33.02.68s0,.57-.02.68c-.03,1.09-.36,1.98-.98,2.66-.62.69-1.49,1.03-2.61,1.03s-1.99-.34-2.61-1.03Zm4.46-.65c.47-.49.72-1.19.75-2.09,0-.11.02-.31.02-.6s0-.49-.02-.6c-.03-.91-.28-1.6-.75-2.09-.47-.49-1.09-.74-1.85-.74s-1.38.24-1.85.74c-.47.49-.72,1.19-.75,2.09l-.02.6.02.6c.03.91.28,1.6.75,2.09.47.49,1.09.74,1.85.74s1.38-.24,1.85-.74Z" fill="#435765"/><path d="m173.76,175.2c-.06-.06-.1-.15-.1-.26v-7.68c0-.11.03-.2.1-.27s.15-.11.26-.11h.26c.11,0,.2.04.27.11.07.07.1.16.1.27v.74c.39-.74,1.12-1.11,2.2-1.11h.6c.11,0,.19.03.26.1s.1.15.1.26v.23c0,.11-.03.19-.1.26s-.15.1-.26.1h-.7c-.65,0-1.16.19-1.54.57s-.57.89-.57,1.54v5.01c0,.11-.04.19-.1.26-.07.06-.16.1-.27.1h-.26c-.11,0-.19-.03-.26-.1Z" fill="#435765"/><path d="m180.42,174.58c-.33-.48-.5-1.14-.5-1.98v-4.77h-1.26c-.11,0-.19-.03-.26-.1s-.1-.15-.1-.26v-.23c0-.11.03-.19.1-.26s.15-.1.26-.1h1.26v-2.72c0-.11.03-.19.1-.26s.15-.1.26-.1h.28c.11,0,.19.03.26.1s.1.15.1.26v2.72h2c.11,0,.19.03.26.1s.1.15.1.26v.23c0,.11-.03.19-.1.26s-.15.1-.26.1h-2v4.71c0,.6.1,1.06.3,1.37.2.31.53.46,1,.46h.87c.11,0,.19.03.26.1s.1.15.1.26v.23c0,.11-.03.19-.1.26s-.15.1-.26.1h-.95c-.8,0-1.36-.24-1.7-.72Z" fill="#435765"/></g></g></g></g></g></svg>